<?xml version="1.0" encoding="UTF-8" standalone="no"?>
<svg
   xmlns:dc="http://purl.org/dc/elements/1.1/"
   xmlns:cc="http://creativecommons.org/ns#"
   xmlns:rdf="http://www.w3.org/1999/02/22-rdf-syntax-ns#"
   xmlns:svg="http://www.w3.org/2000/svg"
   xmlns="http://www.w3.org/2000/svg"
   viewBox="0 0 793 113"
   height="113"
   width="793"
   xml:space="preserve"
   id="svg2"
   version="1.1"><metadata
     id="metadata8"><rdf:RDF><cc:Work
         rdf:about=""><dc:format>image/svg+xml</dc:format><dc:type
           rdf:resource="http://purl.org/dc/dcmitype/StillImage" /></cc:Work></rdf:RDF></metadata><defs
     id="defs6" /><g
     transform="matrix(1.3333333,0,0,1.3333333,0,2.825e-6)"
     id="g10"><g
       id="g12"><path
         id="path14"
         style="fill:#cc9900;fill-opacity:1;fill-rule:nonzero;stroke:none"
         d="m 167.953,32.879 h 18.992 v 18.992 h -18.992 z" /><path
         id="path16"
         style="fill:#ffffff;fill-opacity:1;fill-rule:nonzero;stroke:none"
         d="m 177.48,36.246 2.325,1.336 c 0.113,0.059 0.23,0.176 0.347,0.293 0.059,0.113 0.114,0.23 0.114,0.348 v 2.09 c 0,0.117 0,0.292 -0.055,0.406 -0.059,0.058 -0.117,0.176 -0.176,0.234 l -2.148,1.277 c -0.117,0.059 -0.235,0.118 -0.407,0.118 -0.175,0 -0.292,-0.059 -0.464,-0.118 l -1.977,-1.164 c -0.113,-0.054 -0.172,-0.113 -0.23,-0.171 -0.059,-0.118 -0.118,-0.29 -0.118,-0.407 v -2.265 c 0,-0.118 0.059,-0.176 0.118,-0.289 0.058,-0.118 0.171,-0.176 0.289,-0.235 z m -5.691,0.117 v 0.754 h 2.785 l 1.281,-0.754 z m 11.383,0 h -4.067 l 1.278,0.754 h 2.789 z m -2.149,2.266 h 2.149 v -0.754 h -2.207 c 0,0 0,0.059 0,0.059 z m -7.085,-0.754 h -2.149 v 0.754 h 2.149 z m 7.085,1.449 h 2.149 v 0.758 h -2.149 z m -9.234,0 v 0.758 h 2.149 v -0.758 z m 8.887,2.094 -0.352,0.23 h 2.789 v -0.812 h -2.148 c 0,0.117 -0.059,0.176 -0.059,0.23 -0.058,0.176 -0.117,0.235 -0.23,0.352 z m -6.567,-0.176 c -0.113,-0.117 -0.113,-0.289 -0.113,-0.465 h -2.148 v 0.754 h 2.726 l -0.113,-0.054 c -0.176,-0.059 -0.293,-0.118 -0.352,-0.235 z m 3.778,1.86 h 5.285 v -0.7 h -4.067 l -1.16,0.7 z m -2.09,-0.754 h -4.008 v 0.812 h 5.285 l -0.117,-0.058 z m 7.086,2.261 c 0.113,-0.23 0.172,-0.464 0.172,-0.754 h -5.227 v 0.754 z m -11.035,-0.754 c 0.058,0.235 0.113,0.524 0.172,0.754 h 5.113 v -0.754 z m 0.578,1.512 c 0.117,0.231 0.293,0.524 0.465,0.754 h 4.242 v -0.754 z m 9.64,0.754 c 0.176,-0.23 0.352,-0.465 0.465,-0.754 h -4.703 v 0.754 z m -8.535,0.754 c 0.289,0.293 0.578,0.523 0.871,0.758 h 2.672 v -0.758 z m 7.028,0.699 c 0.289,-0.234 0.578,-0.465 0.871,-0.758 h -3.543 v 0.758 z m -4.938,0.813 c 0.465,0.289 0.988,0.523 1.453,0.695 v -0.695 z m 3.719,0 h -1.453 v 0.695 c 0.465,-0.23 0.988,-0.465 1.453,-0.695 z" /><path
         id="path18"
         style="fill:#000000;fill-opacity:1;fill-rule:nonzero;stroke:none"
         d="m 187.703,32.879 h 95.129 v 18.992 h -95.129 z" /><path
         id="path20"
         style="fill:#ffffff;fill-opacity:1;fill-rule:nonzero;stroke:none"
         d="m 255.188,41.184 c -0.407,0.058 -0.813,0.293 -1.106,0.64 -0.172,0.231 -0.637,0.989 -0.637,0.989 v 3.367 h -0.582 c -0.172,0 -0.289,-0.117 -0.347,-0.235 0,0 0,-0.054 0,-0.054 v -5.52 h 0.582 c 0.172,0 0.347,0.117 0.347,0.289 v 0.988 l 0.059,-0.117 c 0.348,-0.695 0.984,-1.101 1.742,-1.16 h 0.059 c 0.113,0 0.172,0 0.23,0.117 0.059,0.059 0.059,0.117 0.059,0.231 v 0.523 z m -24.684,2.265 c 0,1.86 -1.16,2.848 -2.902,2.848 -1.743,0 -2.907,-1.047 -2.907,-2.848 v -4.937 c 0,-0.172 0.118,-0.289 0.293,-0.348 h 0.696 v 5.285 c 0,1.453 0.812,1.977 1.918,1.977 1.043,0 1.914,-0.524 1.914,-1.977 v -4.937 c 0,-0.172 0.117,-0.348 0.293,-0.348 h 0.695 z m 14.984,-1.625 c -0.058,1.625 -0.695,3.137 -1.8,4.356 h -0.989 c -1.043,-1.219 -1.683,-2.731 -1.683,-4.356 V 40.66 c 0,-0.172 0.117,-0.289 0.289,-0.347 h 0.64 v 1.511 c -0.058,1.336 0.407,2.672 1.278,3.656 0.871,-1.042 1.336,-2.32 1.277,-3.656 V 40.66 c 0,-0.172 0.117,-0.289 0.293,-0.347 h 0.637 z m 3.602,0.989 c 0.93,0 1.16,-0.352 1.16,-0.93 0,-0.582 -0.465,-0.817 -1.102,-0.817 -0.988,0 -1.57,0.524 -1.57,1.688 v 0.059 z m -2.442,1.101 v -1.16 c -0.058,-1.277 0.93,-2.441 2.207,-2.5 0.118,0 0.176,0 0.293,0 1.161,0 1.973,0.523 1.973,1.684 0,1.046 -0.637,1.687 -1.801,1.687 h -1.742 v 0.348 c 0,1.101 0.641,1.507 1.57,1.507 0.579,-0.054 1.102,-0.171 1.684,-0.347 v 0.523 c 0,0.235 0,0.289 -0.234,0.407 -0.465,0.175 -0.985,0.289 -1.45,0.289 -1.394,-0.055 -2.441,-0.754 -2.5,-2.438 m 10.629,-1.976 c 0,0.523 0.348,0.582 0.813,0.699 l 0.699,0.176 c 0.93,0.23 1.625,0.578 1.625,1.742 0,1.277 -1.101,1.742 -2.324,1.742 -0.465,0 -0.985,-0.059 -1.449,-0.176 l -0.235,-0.058 v -0.524 c 0,-0.172 0.117,-0.23 0.289,-0.23 0.059,0 0.059,0 0.118,0 0.406,0.117 0.871,0.117 1.335,0.171 0.93,0 1.395,-0.23 1.395,-0.925 0,-0.524 -0.465,-0.7 -0.93,-0.817 l -0.871,-0.23 c -0.812,-0.059 -1.394,-0.754 -1.394,-1.57 0,-1.043 0.871,-1.684 2.265,-1.684 0.465,0 0.871,0.059 1.278,0.117 0.058,0 0.175,0.059 0.234,0.059 v 0.523 c 0,0.172 -0.117,0.231 -0.293,0.231 -0.406,-0.059 -0.871,-0.118 -1.277,-0.118 -0.813,0.059 -1.278,0.293 -1.278,0.872 m 14.868,2.73 -0.407,0.406 c -0.406,0.465 -1.043,0.758 -1.683,0.758 -0.989,0 -1.567,-0.523 -1.567,-2.035 v -3.192 c 0,-0.175 0.114,-0.292 0.289,-0.351 h 0.641 v 3.543 c 0,0.871 0.348,1.164 0.871,1.164 0.52,0 1.16,-0.582 1.508,-0.93 l 0.348,-0.347 v -3.079 c 0,-0.175 0.117,-0.292 0.293,-0.351 h 0.636 v 5.113 c 0,1.973 -1.16,2.785 -3.195,2.785 h -0.984 v -0.519 c 0,-0.176 0.113,-0.352 0.289,-0.352 h 0.695 c 1.57,0 2.266,-0.465 2.266,-1.855 z m -5.051,0.699 c 0.117,0 0.172,0 0.23,0.113 0.059,0.059 0.117,0.176 0.059,0.235 v 0.523 h -0.813 c -0.929,0.114 -1.8,-0.582 -1.918,-1.57 0,0 0,-0.059 0,-0.059 0,-0.113 0,-0.23 0,-0.347 v -5.285 h 0.582 c 0.176,0 0.289,0.117 0.348,0.293 0,0 0,0.054 0,0.054 v 0.989 h 1.336 c 0.176,0 0.293,0.117 0.348,0.234 v 0.578 h -1.625 v 3.078 c -0.059,0.524 0.289,0.988 0.812,1.106 0.059,0 0.117,0 0.176,0 z m -27.473,-6.508 c 0,0.176 -0.113,0.293 -0.289,0.352 h -0.641 v -0.699 c 0,-0.172 0.118,-0.289 0.293,-0.348 h 0.637 z m 0,6.973 v 0.348 h -0.578 c -0.176,0 -0.352,-0.117 -0.352,-0.289 0,0 0,-0.059 0,-0.059 v -4.707 h -0.636 c -0.176,0 -0.289,-0.059 -0.348,-0.23 0,0 0,-0.059 0,-0.118 v -0.523 h 1.566 c 0.176,0 0.29,0.117 0.348,0.293 z m 23.524,-6.973 c 0,0.176 -0.118,0.293 -0.293,0.352 h -0.637 v -0.699 c 0,-0.172 0.117,-0.289 0.289,-0.348 h 0.641 z m 0,6.973 v 0.348 h -0.582 c -0.172,0 -0.348,-0.117 -0.348,-0.289 v -4.766 h -0.641 c -0.172,0 -0.289,-0.059 -0.347,-0.23 v -0.582 h 1.57 c 0.172,0 0.289,0.117 0.348,0.292 z m -30.2,-4.414 0.407,-0.406 c 0.406,-0.465 1.043,-0.758 1.683,-0.758 0.93,0 1.567,0.523 1.567,2.035 v 3.949 h -0.579 c -0.175,0 -0.293,-0.117 -0.351,-0.293 v -3.656 c 0,-0.93 -0.406,-1.164 -0.93,-1.164 -0.578,0 -1.16,0.582 -1.508,0.93 l -0.347,0.347 v 3.836 h -0.582 c -0.176,0 -0.289,-0.117 -0.348,-0.234 0,0 0,-0.059 0,-0.059 V 40.43 h 0.578 c 0.176,0 0.293,0.117 0.352,0.289 v 0.699 z m -30.144,3.656 -0.406,0.465 c -0.407,0.465 -1.047,0.758 -1.684,0.758 -0.93,0 -1.57,-0.524 -1.57,-2.035 V 40.66 c 0,-0.172 0.117,-0.289 0.293,-0.347 h 0.636 v 3.949 c 0,0.929 0.465,1.164 0.93,1.164 0.582,0 1.164,-0.582 1.512,-0.93 l 0.347,-0.351 v -3.54 c 0,-0.175 0.118,-0.292 0.289,-0.351 h 0.641 v 5.578 c 0,0.172 -0.117,0.289 -0.289,0.348 h -0.641 v -1.106 z m 5.113,-3.89 c -0.41,0.058 -0.816,0.293 -1.105,0.64 -0.176,0.172 -0.641,0.93 -0.641,0.93 v 3.367 h -0.578 c -0.176,0 -0.293,-0.117 -0.348,-0.289 v -5.578 h 0.578 c 0.176,0 0.293,0.117 0.348,0.293 v 1.043 l 0.117,-0.113 c 0.348,-0.7 0.988,-1.106 1.742,-1.164 0.118,0 0.176,0.058 0.235,0.117 0.058,0.058 0.058,0.117 0.058,0.23 v 0.524 z m 3.774,4.183 c 0.117,0 0.175,0.059 0.23,0.113 0.059,0.059 0.117,0.176 0.117,0.235 v 0.523 h -0.812 c -0.93,0.114 -1.801,-0.582 -1.918,-1.57 0,0 0,-0.059 0,-0.059 0,-0.113 0,-0.23 0,-0.347 v -5.285 h 0.582 c 0.176,0 0.347,0.117 0.347,0.293 v 1.043 h 1.336 c 0.176,0 0.293,0.117 0.348,0.292 v 0.579 h -1.625 v 3.078 c -0.059,0.523 0.289,0.988 0.812,1.105 0.059,0 0.118,0 0.176,0 z m 3.136,-6.508 c 0,0.176 -0.117,0.293 -0.234,0.352 h -0.637 v -0.699 c 0,-0.172 0.117,-0.289 0.289,-0.348 h 0.641 v 0.695 z m 0,6.973 v 0.348 h -0.582 c -0.172,0 -0.347,-0.117 -0.347,-0.289 0,0 0,-0.059 0,-0.059 v -4.707 h -0.7 c -0.172,0 -0.289,-0.059 -0.347,-0.23 0,0 0,-0.059 0,-0.059 v -0.523 h 1.57 c 0.172,0 0.289,0.117 0.348,0.234 0,0 0,0.058 0,0.058 z m 2.379,-4.414 0.465,-0.406 c 0.406,-0.465 1.047,-0.758 1.684,-0.758 0.929,0 1.57,0.523 1.57,2.035 v 3.949 h -0.582 c -0.172,0 -0.348,-0.117 -0.348,-0.293 v -3.656 c 0,-0.93 -0.465,-1.164 -0.929,-1.164 -0.583,0 -1.161,0.582 -1.508,0.93 l -0.352,0.347 v 3.836 h -0.578 c -0.176,0 -0.293,-0.117 -0.352,-0.293 v -5.574 h 0.582 c 0.176,0 0.293,0.117 0.348,0.289 0,0 0,0.059 0,0.059 z m -20.324,-3.254 v 0 m 0,0 v 0 m -0.988,0.754 c 0.289,0 0.636,0.059 0.929,0.117 0.231,0.059 0.465,0.176 0.754,0.289 0.059,0 0.117,0 0.117,0 0.118,0 0.172,-0.054 0.172,-0.23 v -0.641 c -0.054,-0.055 -0.113,-0.055 -0.172,-0.113 -0.234,-0.117 -0.523,-0.176 -0.753,-0.176 h -0.059 c -0.117,0 -0.234,-0.059 -0.406,-0.059 h -0.41 c -2.321,0 -3.833,1.278 -3.833,3.602 v 0.988 c 0,2.09 1.106,3.602 3.543,3.602 h 0.524 c 0.523,0 0.988,-0.117 1.453,-0.293 l 0.23,-0.113 V 45.25 c 0,-0.176 -0.058,-0.234 -0.171,-0.234 -0.059,0 -0.118,0 -0.176,0.058 -0.406,0.176 -0.871,0.235 -1.336,0.235 h -0.582 c -1.567,0 -2.496,-0.989 -2.496,-2.731 V 41.59 c -0.059,-1.856 1.101,-2.613 2.672,-2.672" /><path
         id="path22"
         style="fill:#040606;fill-opacity:1;fill-rule:nonzero;stroke:none"
         d="m 59.41,44.66 c 0,-1.23 0.91,-2.051 2.043,-2.051 0.699,0 1.188,0.309 1.539,0.743 l -0.39,0.246 c -0.25,-0.321 -0.672,-0.547 -1.149,-0.547 -0.871,0 -1.531,0.664 -1.531,1.609 0,0.942 0.66,1.621 1.531,1.621 0.477,0 0.867,-0.234 1.063,-0.429 v -0.809 h -1.36 v -0.441 h 1.856 v 1.433 c -0.371,0.41 -0.91,0.684 -1.559,0.684 -1.133,0 -2.043,-0.824 -2.043,-2.059" /><path
         id="path24"
         style="fill:#040606;fill-opacity:1;fill-rule:nonzero;stroke:none"
         d="M 66.391,46.641 65.379,45.066 H 64.59 v 1.575 h -0.496 v -3.965 h 1.597 c 0.723,0 1.243,0.465 1.243,1.195 0,0.715 -0.489,1.106 -1.032,1.152 l 1.075,1.618 z m 0.031,-2.77 c 0,-0.445 -0.32,-0.758 -0.793,-0.758 H 64.59 v 1.52 h 1.039 c 0.473,0 0.793,-0.317 0.793,-0.762" /><path
         id="path26"
         style="fill:#040606;fill-opacity:1;fill-rule:nonzero;stroke:none"
         d="M 70.895,46.641 70.543,45.762 H 68.57 l -0.351,0.879 h -0.567 l 1.594,-3.965 h 0.613 l 1.602,3.965 z m -1.336,-3.453 -0.848,2.132 h 1.684 z" /><path
         id="path28"
         style="fill:#040606;fill-opacity:1;fill-rule:nonzero;stroke:none"
         d="m 72.234,42.676 h 0.496 v 3.965 h -0.496 z" /><path
         id="path30"
         style="fill:#040606;fill-opacity:1;fill-rule:nonzero;stroke:none"
         d="M 76.727,46.641 74.41,43.477 v 3.164 h -0.492 v -3.965 h 0.508 l 2.281,3.097 v -3.097 h 0.496 v 3.965 h -0.476" /><path
         id="path32"
         style="fill:#040606;fill-opacity:1;fill-rule:nonzero;stroke:none"
         d="m 78.125,46.082 0.289,-0.375 c 0.262,0.293 0.691,0.566 1.25,0.566 0.707,0 0.934,-0.378 0.934,-0.683 0,-1.024 -2.348,-0.457 -2.348,-1.875 0,-0.652 0.582,-1.102 1.359,-1.102 0.61,0 1.079,0.203 1.411,0.555 l -0.297,0.363 c -0.297,-0.328 -0.715,-0.476 -1.149,-0.476 -0.476,0 -0.816,0.258 -0.816,0.633 0,0.89 2.351,0.378 2.351,1.859 0,0.578 -0.394,1.168 -1.464,1.168 -0.688,0 -1.196,-0.262 -1.52,-0.633" /><path
         id="path34"
         style="fill:#040606;fill-opacity:1;fill-rule:nonzero;stroke:none"
         d="m 86.129,46.641 -1.012,-1.575 h -0.793 v 1.575 h -0.492 v -3.965 h 1.594 c 0.726,0 1.246,0.465 1.246,1.195 0,0.715 -0.488,1.106 -1.031,1.152 l 1.07,1.618 z m 0.031,-2.77 c 0,-0.445 -0.324,-0.758 -0.793,-0.758 h -1.043 v 1.52 h 1.043 c 0.469,0 0.793,-0.317 0.793,-0.762" /><path
         id="path36"
         style="fill:#040606;fill-opacity:1;fill-rule:nonzero;stroke:none"
         d="m 87.68,46.641 v -3.965 h 2.597 v 0.437 h -2.105 v 1.282 h 2.066 v 0.437 h -2.066 v 1.371 h 2.105 v 0.438 H 87.68" /><path
         id="path38"
         style="fill:#040606;fill-opacity:1;fill-rule:nonzero;stroke:none"
         d="m 91.055,46.082 0.293,-0.375 c 0.257,0.293 0.687,0.566 1.246,0.566 0.711,0 0.937,-0.378 0.937,-0.683 0,-1.024 -2.351,-0.457 -2.351,-1.875 0,-0.652 0.582,-1.102 1.363,-1.102 0.605,0 1.074,0.203 1.41,0.555 l -0.301,0.363 c -0.297,-0.328 -0.711,-0.476 -1.148,-0.476 -0.473,0 -0.813,0.258 -0.813,0.633 0,0.89 2.348,0.378 2.348,1.859 0,0.578 -0.391,1.168 -1.461,1.168 -0.691,0 -1.195,-0.262 -1.523,-0.633" /><path
         id="path40"
         style="fill:#040606;fill-opacity:1;fill-rule:nonzero;stroke:none"
         d="m 95.02,46.641 v -3.965 h 2.601 v 0.437 h -2.105 v 1.282 h 2.062 v 0.437 h -2.062 v 1.371 h 2.105 v 0.438 H 95.02" /><path
         id="path42"
         style="fill:#040606;fill-opacity:1;fill-rule:nonzero;stroke:none"
         d="m 101.566,46.641 -0.351,-0.879 h -1.977 l -0.351,0.879 h -0.563 l 1.594,-3.965 h 0.613 l 1.598,3.965 z m -1.339,-3.453 -0.844,2.132 h 1.683 z" /><path
         id="path44"
         style="fill:#040606;fill-opacity:1;fill-rule:nonzero;stroke:none"
         d="m 105.203,46.641 -1.012,-1.575 h -0.793 v 1.575 h -0.492 v -3.965 h 1.594 c 0.727,0 1.242,0.465 1.242,1.195 0,0.715 -0.488,1.106 -1.027,1.152 l 1.07,1.618 z m 0.027,-2.77 c 0,-0.445 -0.32,-0.758 -0.789,-0.758 h -1.043 v 1.52 h 1.043 c 0.469,0 0.789,-0.317 0.789,-0.762" /><path
         id="path46"
         style="fill:#040606;fill-opacity:1;fill-rule:nonzero;stroke:none"
         d="m 106.535,44.66 c 0,-1.219 0.899,-2.051 2.039,-2.051 0.703,0 1.192,0.34 1.508,0.786 l -0.418,0.23 c -0.226,-0.332 -0.637,-0.574 -1.09,-0.574 -0.867,0 -1.527,0.664 -1.527,1.609 0,0.942 0.66,1.613 1.527,1.613 0.453,0 0.864,-0.238 1.09,-0.578 l 0.422,0.235 c -0.332,0.449 -0.809,0.785 -1.512,0.785 -1.14,0 -2.039,-0.832 -2.039,-2.055" /><path
         id="path48"
         style="fill:#040606;fill-opacity:1;fill-rule:nonzero;stroke:none"
         d="M 113.766,46.641 V 44.82 h -2.321 v 1.821 h -0.496 v -3.965 h 0.496 v 1.707 h 2.321 v -1.707 h 0.492 v 3.965 h -0.492" /><path
         id="path50"
         style="fill:#040606;fill-opacity:1;fill-rule:nonzero;stroke:none"
         d="m 62.137,52.477 c -0.121,-0.098 -0.274,-0.247 -0.434,-0.414 -0.293,0.289 -0.66,0.488 -1.144,0.488 -0.684,0 -1.235,-0.371 -1.235,-1.11 0,-0.617 0.414,-0.933 0.871,-1.175 -0.175,-0.305 -0.3,-0.614 -0.3,-0.891 0,-0.531 0.437,-0.926 1,-0.926 0.515,0 0.898,0.281 0.898,0.781 0,0.594 -0.508,0.856 -1.012,1.118 0.16,0.222 0.324,0.418 0.457,0.566 0.16,0.191 0.317,0.363 0.469,0.527 0.223,-0.324 0.359,-0.683 0.43,-0.902 l 0.386,0.168 c -0.136,0.313 -0.304,0.688 -0.543,1.023 0.235,0.243 0.485,0.481 0.774,0.747 z M 61.434,51.789 C 61.207,51.551 61,51.324 60.887,51.188 c -0.168,-0.192 -0.34,-0.407 -0.5,-0.633 -0.328,0.203 -0.582,0.449 -0.582,0.859 0,0.492 0.379,0.766 0.797,0.766 0.328,0 0.605,-0.164 0.832,-0.391 z m -0.84,-1.726 c 0.426,-0.208 0.785,-0.422 0.785,-0.817 0,-0.289 -0.199,-0.445 -0.469,-0.445 -0.305,0 -0.551,0.238 -0.551,0.578 0,0.207 0.098,0.453 0.235,0.684" /><path
         id="path52"
         style="fill:#040606;fill-opacity:1;fill-rule:nonzero;stroke:none"
         d="m 65.371,52.477 v -3.965 h 1.356 c 1.23,0 2.035,0.863 2.035,1.984 0,1.133 -0.805,1.981 -2.035,1.981 z m 2.879,-1.981 c 0,-0.855 -0.543,-1.547 -1.523,-1.547 h -0.864 v 3.09 h 0.864 c 0.964,0 1.523,-0.691 1.523,-1.543" /><path
         id="path54"
         style="fill:#040606;fill-opacity:1;fill-rule:nonzero;stroke:none"
         d="m 69.762,52.477 v -3.965 h 2.601 v 0.437 h -2.109 v 1.281 h 2.066 v 0.438 h -2.066 v 1.371 h 2.109 v 0.438 h -2.601" /><path
         id="path56"
         style="fill:#040606;fill-opacity:1;fill-rule:nonzero;stroke:none"
         d="m 74.656,52.477 -1.593,-3.965 h 0.566 l 1.34,3.426 1.336,-3.426 h 0.566 l -1.601,3.965 h -0.614" /><path
         id="path58"
         style="fill:#040606;fill-opacity:1;fill-rule:nonzero;stroke:none"
         d="m 77.645,52.477 v -3.965 h 2.601 v 0.437 h -2.105 v 1.281 h 2.062 v 0.438 h -2.062 v 1.371 h 2.105 v 0.438 h -2.601" /><path
         id="path60"
         style="fill:#040606;fill-opacity:1;fill-rule:nonzero;stroke:none"
         d="m 81.262,52.477 v -3.965 h 0.492 v 3.527 h 1.844 v 0.438 h -2.336" /><path
         id="path62"
         style="fill:#040606;fill-opacity:1;fill-rule:nonzero;stroke:none"
         d="m 84.113,50.496 c 0,-1.172 0.793,-2.051 1.969,-2.051 1.172,0 1.969,0.879 1.969,2.051 0,1.172 -0.797,2.055 -1.969,2.055 -1.176,0 -1.969,-0.883 -1.969,-2.055 z m 3.426,0 c 0,-0.926 -0.57,-1.609 -1.457,-1.609 -0.891,0 -1.457,0.683 -1.457,1.609 0,0.922 0.566,1.613 1.457,1.613 0.887,0 1.457,-0.691 1.457,-1.613" /><path
         id="path64"
         style="fill:#040606;fill-opacity:1;fill-rule:nonzero;stroke:none"
         d="m 89.066,52.477 v -3.965 h 1.594 c 0.797,0 1.246,0.547 1.246,1.195 0,0.648 -0.461,1.195 -1.246,1.195 h -1.097 v 1.575 z m 2.329,-2.77 c 0,-0.445 -0.325,-0.758 -0.793,-0.758 h -1.039 v 1.512 h 1.039 c 0.468,0 0.793,-0.309 0.793,-0.754" /><path
         id="path66"
         style="fill:#040606;fill-opacity:1;fill-rule:nonzero;stroke:none"
         d="m 96.137,52.477 v -3.266 l -1.352,3.266 h -0.203 l -1.344,-3.266 v 3.266 h -0.492 v -3.965 h 0.707 l 1.231,2.984 1.238,-2.984 h 0.707 v 3.965 h -0.492" /><path
         id="path68"
         style="fill:#040606;fill-opacity:1;fill-rule:nonzero;stroke:none"
         d="m 97.828,52.477 v -3.965 h 2.602 v 0.437 h -2.106 v 1.281 h 2.063 v 0.438 h -2.063 v 1.371 h 2.106 v 0.438 h -2.602" /><path
         id="path70"
         style="fill:#040606;fill-opacity:1;fill-rule:nonzero;stroke:none"
         d="m 104.254,52.477 -2.316,-3.164 v 3.164 h -0.493 v -3.965 h 0.504 l 2.285,3.097 v -3.097 h 0.496 v 3.965 h -0.476" /><path
         id="path72"
         style="fill:#040606;fill-opacity:1;fill-rule:nonzero;stroke:none"
         d="m 106.828,52.477 v -3.528 h -1.258 v -0.437 h 3.012 v 0.437 h -1.262 v 3.528 h -0.492" /><path
         id="path74"
         style="fill:#040606;fill-opacity:1;fill-rule:nonzero;stroke:none"
         d="m 59.41,56.332 c 0,-1.219 0.899,-2.051 2.043,-2.051 0.699,0 1.188,0.34 1.504,0.785 l -0.418,0.231 c -0.223,-0.332 -0.633,-0.574 -1.086,-0.574 -0.871,0 -1.531,0.664 -1.531,1.609 0,0.941 0.66,1.613 1.531,1.613 0.453,0 0.863,-0.238 1.086,-0.578 l 0.426,0.235 c -0.336,0.449 -0.813,0.785 -1.512,0.785 -1.144,0 -2.043,-0.832 -2.043,-2.055" /><path
         id="path76"
         style="fill:#040606;fill-opacity:1;fill-rule:nonzero;stroke:none"
         d="m 63.566,56.332 c 0,-1.172 0.789,-2.051 1.969,-2.051 1.172,0 1.969,0.879 1.969,2.051 0,1.172 -0.797,2.055 -1.969,2.055 -1.18,0 -1.969,-0.883 -1.969,-2.055 z m 3.426,0 c 0,-0.926 -0.57,-1.609 -1.457,-1.609 -0.894,0 -1.457,0.683 -1.457,1.609 0,0.922 0.563,1.613 1.457,1.613 0.887,0 1.457,-0.691 1.457,-1.613" /><path
         id="path78"
         style="fill:#040606;fill-opacity:1;fill-rule:nonzero;stroke:none"
         d="m 70.816,58.313 -1.011,-1.575 h -0.793 v 1.575 H 68.52 v -3.965 h 1.593 c 0.727,0 1.242,0.461 1.242,1.195 0,0.715 -0.484,1.105 -1.027,1.152 l 1.07,1.618 z m 0.028,-2.77 c 0,-0.445 -0.321,-0.758 -0.789,-0.758 h -1.043 v 1.52 h 1.043 c 0.468,0 0.789,-0.317 0.789,-0.762" /><path
         id="path80"
         style="fill:#040606;fill-opacity:1;fill-rule:nonzero;stroke:none"
         d="m 72.367,58.313 v -3.965 h 1.594 c 0.797,0 1.242,0.547 1.242,1.195 0,0.648 -0.457,1.195 -1.242,1.195 h -1.102 v 1.575 z m 2.324,-2.77 c 0,-0.445 -0.32,-0.758 -0.789,-0.758 h -1.043 v 1.512 h 1.043 c 0.469,0 0.789,-0.309 0.789,-0.754" /><path
         id="path82"
         style="fill:#040606;fill-opacity:1;fill-rule:nonzero;stroke:none"
         d="m 75.938,56.332 c 0,-1.172 0.792,-2.051 1.968,-2.051 1.172,0 1.969,0.879 1.969,2.051 0,1.172 -0.797,2.055 -1.969,2.055 -1.176,0 -1.968,-0.883 -1.968,-2.055 z m 3.425,0 c 0,-0.926 -0.57,-1.609 -1.457,-1.609 -0.89,0 -1.457,0.683 -1.457,1.609 0,0.922 0.567,1.613 1.457,1.613 0.887,0 1.457,-0.691 1.457,-1.613" /><path
         id="path84"
         style="fill:#040606;fill-opacity:1;fill-rule:nonzero;stroke:none"
         d="m 83.188,58.313 -1.012,-1.575 h -0.789 v 1.575 h -0.496 v -3.965 h 1.593 c 0.727,0 1.246,0.461 1.246,1.195 0,0.715 -0.488,1.105 -1.031,1.152 l 1.071,1.618 z m 0.031,-2.77 c 0,-0.445 -0.324,-0.758 -0.793,-0.758 h -1.039 v 1.52 h 1.039 c 0.469,0 0.793,-0.317 0.793,-0.762" /><path
         id="path86"
         style="fill:#040606;fill-opacity:1;fill-rule:nonzero;stroke:none"
         d="M 87.691,58.313 87.34,57.434 h -1.977 l -0.347,0.879 h -0.567 l 1.594,-3.965 h 0.613 l 1.602,3.965 z m -1.339,-3.454 -0.844,2.133 h 1.683 z" /><path
         id="path88"
         style="fill:#040606;fill-opacity:1;fill-rule:nonzero;stroke:none"
         d="m 89.516,58.313 v -3.528 h -1.258 v -0.437 h 3.012 v 0.437 h -1.262 v 3.528 h -0.492" /><path
         id="path90"
         style="fill:#040606;fill-opacity:1;fill-rule:nonzero;stroke:none"
         d="m 92.109,54.348 h 0.492 v 3.965 h -0.492 z" /><path
         id="path92"
         style="fill:#040606;fill-opacity:1;fill-rule:nonzero;stroke:none"
         d="m 93.613,56.332 c 0,-1.172 0.789,-2.051 1.969,-2.051 1.172,0 1.969,0.879 1.969,2.051 0,1.172 -0.797,2.055 -1.969,2.055 -1.18,0 -1.969,-0.883 -1.969,-2.055 z m 3.426,0 c 0,-0.926 -0.57,-1.609 -1.457,-1.609 -0.894,0 -1.457,0.683 -1.457,1.609 0,0.922 0.563,1.613 1.457,1.613 0.887,0 1.457,-0.691 1.457,-1.613" /><path
         id="path94"
         style="fill:#040606;fill-opacity:1;fill-rule:nonzero;stroke:none"
         d="m 101.375,58.313 -2.316,-3.165 v 3.165 h -0.493 v -3.965 h 0.504 l 2.285,3.097 v -3.097 h 0.497 v 3.965 h -0.477" /><path
         id="path96"
         style="fill:#267d4a;fill-opacity:1;fill-rule:nonzero;stroke:none"
         d="M 55.023,59.852 C 57.656,55.438 57.34,53.156 54.738,47.664 53.59,45.18 52.496,43.367 51.352,40.879 50.516,38.91 49.73,35.852 49.055,34.141 c -1.188,3.894 2.172,20.586 5.968,25.711" /><path
         id="path98"
         style="fill:#267d4a;fill-opacity:1;fill-rule:nonzero;stroke:none"
         d="M 46.352,51.34 C 41.723,48.789 38.871,47.551 34.074,46.27 31.773,45.75 23.293,44.633 21.063,45.199 c 1.64,0.653 4.128,1.41 6.191,2.114 6.926,3.07 12.914,8.39 19.098,4.027" /><path
         id="path100"
         style="fill:#267d4a;fill-opacity:1;fill-rule:nonzero;stroke:none"
         d="m 46.359,51.332 c 3.621,-6.652 -0.347,-10.57 -3.921,-18.344 -1.219,-2.449 -1.696,-4.3 -2.754,-6.496 -1.141,3.254 2.394,19.324 6.675,24.84" /><path
         id="path102"
         style="fill:#267d4a;fill-opacity:1;fill-rule:nonzero;stroke:none"
         d="M 55.016,59.852 C 50.594,56.078 34.063,53.516 29.469,54.66 c 0.82,0.492 2.101,0.59 3.148,0.891 5.446,1.703 11.61,5.183 15.84,5.937 2.758,0.426 3.441,-0.164 6.559,-1.636" /><path
         id="path104"
         style="fill:#267d4a;fill-opacity:1;fill-rule:nonzero;stroke:none"
         d="m 38.547,43.691 c -1.231,-0.566 -2.602,-1.793 -5.059,-2.921 -1.418,-0.801 -3.5,-1.457 -5.152,-2.067 -2.691,-0.945 -8.551,-2.445 -10.723,-2.254 0.992,0.758 3.875,1.934 5.106,2.496 4.676,2.45 10.969,7.871 15.828,4.746" /><path
         id="path106"
         style="fill:#267d4a;fill-opacity:1;fill-rule:nonzero;stroke:none"
         d="m 38.555,43.691 c -0.598,-1.214 -1.856,-2.554 -3.047,-4.98 -0.84,-1.398 -1.543,-3.461 -2.195,-5.098 -1.012,-2.672 -2.661,-8.488 -2.524,-10.664 0.781,0.973 2.027,3.824 2.621,5.039 2.57,4.614 8.145,10.766 5.145,15.703" /><path
         id="path108"
         style="fill:#267d4a;fill-opacity:1;fill-rule:nonzero;stroke:none"
         d="m 23.699,28.648 c -0.289,-1.687 -1.57,-4.07 -1.613,-5.582 2.793,2.34 8.211,9.872 8.473,12.645 l -0.012,0.008 c -2.766,-0.348 -10.129,-5.992 -12.379,-8.852 1.508,0.09 3.848,1.438 5.527,1.778 l 0.004,0.003" /><path
         id="path110"
         style="fill:#040606;fill-opacity:1;fill-rule:nonzero;stroke:none"
         d="m 59.109,29.004 c 0,-3.762 2.852,-6.152 6.332,-6.152 2.477,0 4.032,1.25 4.922,2.656 l -2.105,1.144 c -0.535,-0.839 -1.551,-1.554 -2.817,-1.554 -2.16,0 -3.73,1.66 -3.73,3.906 0,2.25 1.57,3.906 3.73,3.906 1.051,0 2.051,-0.461 2.532,-0.91 v -1.426 h -3.141 v -2.211 h 5.672 v 4.567 c -1.211,1.355 -2.906,2.246 -5.063,2.246 -3.48,0 -6.332,-2.426 -6.332,-6.172" /><path
         id="path112"
         style="fill:#040606;fill-opacity:1;fill-rule:nonzero;stroke:none"
         d="m 81.922,34.945 -2.34,-4.226 H 77.73 v 4.226 H 75.195 V 23.047 h 5.567 c 2.476,0 3.996,1.625 3.996,3.836 0,2.105 -1.32,3.226 -2.606,3.531 l 2.676,4.531 z m 0.246,-8.062 c 0,-1 -0.766,-1.606 -1.781,-1.606 H 77.73 v 3.211 h 2.657 c 1.015,0 1.781,-0.605 1.781,-1.605" /><path
         id="path114"
         style="fill:#040606;fill-opacity:1;fill-rule:nonzero;stroke:none"
         d="M 89.43,34.945 V 23.047 h 4.691 c 3.727,0 6.313,2.375 6.313,5.957 0,3.586 -2.586,5.941 -6.313,5.941 z m 8.418,-5.941 c 0,-2.102 -1.285,-3.727 -3.727,-3.727 h -2.16 v 7.438 h 2.16 c 2.352,0 3.727,-1.695 3.727,-3.711" /><path
         id="path116"
         style="fill:#040606;fill-opacity:1;fill-rule:nonzero;stroke:none"
         d="m 103.625,29.004 c 0,-3.656 2.766,-6.152 6.332,-6.152 2.621,0 4.137,1.425 4.977,2.906 l -2.176,1.07 c -0.5,-0.961 -1.57,-1.73 -2.801,-1.73 -2.156,0 -3.727,1.66 -3.727,3.906 0,2.25 1.571,3.906 3.727,3.906 1.231,0 2.301,-0.746 2.801,-1.73 l 2.176,1.054 c -0.856,1.481 -2.356,2.926 -4.977,2.926 -3.566,0 -6.332,-2.5 -6.332,-6.156" /><path
         id="path118"
         style="fill:#040606;fill-opacity:1;fill-rule:nonzero;stroke:none"
         d="m 59.109,38.82 h 55.824 v 0.496 H 59.109 Z" /><path
         id="path120"
         style="fill:#040606;fill-opacity:1;fill-rule:nonzero;stroke:none"
         d="m 59.109,61.402 h 55.824 v 0.496 H 59.109 Z" /><path
         id="path122"
         style="fill:#040606;fill-opacity:1;fill-rule:nonzero;stroke:none"
         d="m 116.262,23.023 -0.278,0.668 -0.273,-0.668 h -0.215 v 0.993 h 0.172 v -0.668 l 0.273,0.668 h 0.082 l 0.278,-0.668 v 0.668 h 0.172 v -0.993 h -0.211" /><path
         id="path124"
         style="fill:#040606;fill-opacity:1;fill-rule:nonzero;stroke:none"
         d="m 114.605,23.18 h 0.297 v 0.836 h 0.172 V 23.18 h 0.297 v -0.157 h -0.766 v 0.157" /><g
         transform="rotate(89.967798)"
         id="g126"><path
           id="path128"
           style="fill:none;stroke:#797979;stroke-width:0.74688202;stroke-linecap:butt;stroke-linejoin:miter;stroke-miterlimit:4;stroke-dasharray:none;stroke-opacity:1"
           d="M 17.592,-142.06 H 67.291" /></g><path
         id="path130"
         style="fill:#4f2984;fill-opacity:1;fill-rule:nonzero;stroke:none"
         d="m 414.699,41.266 h -1.48 v 0.297 h 0.074 c 0.223,0 0.34,0.039 0.426,0.132 l 0.082,0.086 c 0.09,0.098 0.164,0.184 0.277,0.317 v 4.054 c -0.019,0.215 -0.211,0.368 -0.422,0.332 h -0.105 v 0.293 h 1.617 v -0.293 h -0.121 c -0.207,0 -0.422,-0.101 -0.422,-0.332 v -3.351 l 3.395,3.945 0.027,0.027 h 0.219 v -4.867 c 0.019,-0.199 0.199,-0.347 0.398,-0.324 h 0.137 v -0.297 h -1.602 v 0.297 h 0.078 c 0.203,0 0.426,0.121 0.426,0.324 v 2.867 l -2.973,-3.464 -0.023,-0.028 z m -18.711,12.019 0.375,-0.851 0.371,0.851 z m -0.992,1.11 h -0.105 v 0.183 h 0.914 v -0.183 h -0.094 c -0.047,0 -0.09,-0.02 -0.117,-0.055 -0.016,-0.027 -0.016,-0.059 0,-0.09 l 0.273,-0.645 h 1.02 l 0.281,0.645 c 0.016,0.031 0.016,0.07 0,0.098 -0.02,0.031 -0.055,0.047 -0.09,0.047 h -0.133 v 0.183 h 1.16 v -0.183 h -0.078 c -0.089,0 -0.168,-0.075 -0.238,-0.231 l -1.187,-2.73 c -0.016,-0.036 -0.047,-0.059 -0.082,-0.071 -0.028,0 -0.067,0 -0.11,0.047 l -1.133,2.738 c -0.054,0.118 -0.144,0.247 -0.265,0.247 m -2.5,-2.973 h -1.242 v 0.187 h 0.082 c 0.101,0 0.218,0.032 0.218,0.274 v 2.242 c 0,0.191 -0.062,0.27 -0.218,0.27 h -0.082 v 0.187 h 1.203 v -0.187 h -0.071 c -0.16,0 -0.23,-0.079 -0.23,-0.27 v -2.242 c 0,-0.242 0.133,-0.274 0.23,-0.274 h 0.071 z m -5.524,-4.645 h 4.098 l 0.512,-1.586 h -0.328 v 0.051 c -0.227,0.703 -0.582,1.004 -1.188,1.004 h -1.359 c -0.114,0 -0.2,-0.094 -0.196,-0.207 v -1.898 h 1.469 c 0.227,0 0.344,0.222 0.344,0.425 v 0.094 h 0.285 v -1.613 h -0.285 v 0.109 c 0,0.207 -0.106,0.426 -0.344,0.426 h -1.465 v -1.789 h 1.59 c 0.391,0 0.645,0.305 0.676,0.797 v 0.07 h 0.281 l -0.098,-1.39 h -3.992 v 0.296 h 0.102 c 0.281,0 0.426,0.164 0.426,0.5 v 3.95 c 0,0.328 -0.133,0.484 -0.426,0.484 h -0.102 v 0.281 z m 0.535,4.645 h -1.203 v 0.187 h 0.075 c 0.058,0 0.226,0 0.226,0.286 v 2.23 c 0,0.246 -0.129,0.273 -0.226,0.273 h -0.075 v 0.184 h 2.305 l 0.281,-0.934 h -0.183 v 0.036 c -0.125,0.398 -0.328,0.582 -0.672,0.582 h -0.711 c -0.055,0 -0.11,-0.075 -0.11,-0.145 v -2.23 c 0,-0.2 0.071,-0.286 0.239,-0.286 h 0.07 v -0.187 z m -5.668,-4.645 h 4.125 l 0.485,-1.586 h -0.289 v 0.051 c -0.219,0.696 -0.586,1.004 -1.192,1.004 h -1.359 c -0.117,0.008 -0.219,-0.086 -0.219,-0.207 v -1.898 h 1.496 c 0.2,0 0.317,0.222 0.317,0.425 v 0.094 h 0.285 v -1.617 h -0.285 v 0.109 c 0,0.207 -0.11,0.426 -0.317,0.426 H 383.41 V 41.789 H 385 c 0.402,0 0.668,0.305 0.688,0.793 v 0.074 h 0.277 l -0.098,-1.386 h -4 v 0.296 h 0.113 c 0.29,0 0.422,0.157 0.422,0.5 v 3.95 c 0,0.332 -0.129,0.488 -0.422,0.488 h -0.113 v 0.273 z m -0.042,6.508 0.375,-0.851 0.375,0.851 z m -0.989,1.11 h -0.109 v 0.183 h 0.91 v -0.183 h -0.086 c -0.047,0 -0.09,-0.02 -0.121,-0.055 -0.012,-0.027 -0.012,-0.059 0,-0.09 l 0.277,-0.645 h 1.016 l 0.277,0.645 c 0.016,0.031 0.016,0.066 0,0.098 -0.019,0.031 -0.05,0.047 -0.086,0.047 h -0.132 v 0.183 h 1.164 v -0.183 h -0.082 c -0.09,0 -0.168,-0.075 -0.239,-0.231 l -1.183,-2.73 c -0.016,-0.036 -0.047,-0.059 -0.086,-0.071 -0.024,0 -0.063,0 -0.106,0.047 l -1.16,2.738 c -0.055,0.118 -0.144,0.247 -0.265,0.247 m -4.461,-2.637 c 0.066,-0.028 0.136,-0.039 0.207,-0.031 0.324,-0.02 0.601,0.234 0.613,0.562 -0.008,0.332 -0.281,0.598 -0.613,0.59 h -0.207 z m -0.055,-0.336 h -0.848 v 0.187 h 0.11 c 0.152,0 0.222,0.09 0.222,0.274 v 2.242 c 0,0.238 -0.121,0.27 -0.222,0.27 h -0.079 v 0.183 h 1.196 v -0.183 h -0.071 c -0.164,0 -0.234,-0.079 -0.234,-0.27 v -0.957 h 0.121 l 1.071,1.41 h 0.769 v -0.183 h -0.07 c -0.082,0 -0.153,-0.079 -0.223,-0.161 l -0.883,-1.152 c 0.364,-0.098 0.629,-0.414 0.66,-0.793 0.016,-0.219 -0.066,-0.434 -0.222,-0.59 -0.371,-0.254 -0.828,-0.351 -1.274,-0.277 m -5.945,0.07 -0.027,0.754 h 0.172 v -0.047 c 0.019,-0.301 0.125,-0.449 0.339,-0.449 h 0.563 v 2.391 c 0,0.175 -0.07,0.25 -0.242,0.25 h -0.063 v 0.187 h 1.188 v -0.187 h -0.059 c -0.172,0 -0.234,-0.067 -0.234,-0.25 V 51.75 h 0.558 c 0.141,0 0.301,0.055 0.328,0.449 v 0.047 h 0.18 l -0.031,-0.754 c -0.004,-0.039 -0.031,-0.07 -0.07,-0.074 h -2.547 c -0.035,0.004 -0.063,0.035 -0.067,0.07 m -7.41,-7.355 h 1.485 c 0.289,0 0.304,0.371 0.304,0.426 v 0.093 h 0.293 v -1.609 h -0.293 v 0.109 c 0,0.067 0,0.426 -0.304,0.426 h -1.485 v -1.789 h 1.844 c 0.375,0 0.652,0.32 0.676,0.793 v 0.074 h 0.281 l -0.098,-1.39 h -4.246 v 0.297 h 0.11 c 0.289,0 0.425,0.16 0.425,0.507 v 3.934 c 0,0.336 -0.125,0.488 -0.425,0.488 h -0.11 v 0.285 h 2.082 v -0.285 h -0.133 c -0.285,0 -0.425,-0.144 -0.425,-0.472 v -1.887 z m -1.246,7.285 h -1.168 v 0.187 h 0.055 c 0.129,0.008 0.226,0.118 0.222,0.243 v 1.644 c 0.012,0.676 0.602,1.192 1.274,1.113 0.738,0 1.215,-0.425 1.215,-1.054 v -1.789 c 0,-0.071 0.027,-0.16 0.148,-0.16 h 0.149 v -0.188 h -0.934 v 0.188 h 0.137 c 0.09,-0.008 0.168,0.07 0.16,0.16 v 1.789 c -0.02,0.441 -0.41,0.773 -0.848,0.722 -0.41,0 -0.73,-0.351 -0.687,-0.761 v -1.664 c 0,-0.121 0.093,-0.227 0.215,-0.243 h 0.066 v -0.187 z m -5.66,1.855 0.375,-0.847 0.375,0.847 z m -0.988,1.114 h -0.11 v 0.179 h 0.91 v -0.179 h -0.086 c -0.046,0 -0.093,-0.02 -0.121,-0.059 -0.015,-0.027 -0.015,-0.058 0,-0.086 l 0.274,-0.644 h 1.019 l 0.278,0.644 c 0.015,0.031 0.015,0.067 0,0.098 -0.02,0.027 -0.051,0.047 -0.086,0.047 H 357 v 0.179 h 1.148 v -0.179 h -0.078 c -0.093,0 -0.175,-0.074 -0.238,-0.235 l -1.184,-2.73 c -0.019,-0.031 -0.046,-0.059 -0.082,-0.07 -0.043,-0.004 -0.082,0.015 -0.105,0.05 l -1.141,2.739 c -0.05,0.109 -0.136,0.246 -0.261,0.246 M 333.137,41.391 h 0.5 c -0.039,-0.153 -0.137,-0.266 -0.246,-0.266 -0.11,0 -0.211,0.113 -0.254,0.266 m 0.5,0.265 h -0.5 c 0.039,0.153 0.14,0.27 0.254,0.27 0.113,0 0.207,-0.117 0.246,-0.27 m -0.5,-2.547 h 0.5 c -0.039,-0.152 -0.137,-0.265 -0.246,-0.265 -0.11,0 -0.211,0.113 -0.254,0.265 m 0.5,0.27 h -0.5 c 0.039,0.152 0.14,0.266 0.254,0.266 0.113,0 0.207,-0.114 0.246,-0.266 m 6.586,3.57 c -0.278,-0.011 -0.555,0.035 -0.817,0.129 -0.211,0.106 -0.437,0.164 -0.676,0.176 -0.234,-0.012 -0.46,-0.074 -0.671,-0.18 -0.258,-0.094 -0.536,-0.14 -0.809,-0.129 h -2.453 v -1.039 h -0.984 c -0.086,0.16 -0.247,0.262 -0.426,0.266 -0.282,-0.027 -0.504,-0.25 -0.528,-0.531 h -0.14 c -0.071,0 -0.129,-0.059 -0.129,-0.133 -0.004,-0.074 0.055,-0.137 0.129,-0.137 h 0.14 c 0.024,-0.281 0.246,-0.504 0.528,-0.527 0.179,0.004 0.34,0.105 0.426,0.261 h 0.984 v -1.457 h -0.984 c -0.083,0.161 -0.247,0.262 -0.426,0.27 -0.282,-0.027 -0.5,-0.25 -0.528,-0.531 h -0.14 c -0.074,0 -0.133,-0.063 -0.129,-0.137 -0.004,-0.074 0.055,-0.133 0.129,-0.133 h 0.14 c 0.024,-0.281 0.246,-0.504 0.528,-0.531 0.179,0.008 0.34,0.109 0.426,0.266 h 0.984 v -0.766 l 0.535,-0.297 v 4.633 h 1.914 c 0.348,-0.039 0.703,0.019 1.02,0.176 0.144,0.074 0.304,0.117 0.472,0.129 0.16,-0.008 0.321,-0.055 0.465,-0.129 0.317,-0.157 0.672,-0.215 1.02,-0.176 h 1.918 v -4.567 l 0.535,0.239 v 0.758 h 1.273 c 0.223,0 0.403,0.175 0.403,0.398 0,0.219 -0.18,0.398 -0.403,0.398 h -1.273 v 1.469 h 1.273 c 0.485,0.051 0.485,0.754 0,0.805 h -1.273 v 1.035 h -2.453 z m 1.367,-0.992 h -1.367 c -0.418,-0.039 -0.844,0.035 -1.223,0.215 v -4.004 c 0,-0.395 0.426,-0.633 0.945,-0.633 0.797,0 1.223,0.258 1.66,0.176 z m -3.137,0.203 c -0.383,-0.183 -0.805,-0.258 -1.223,-0.219 h -1.367 v -4.246 c 0.422,0.086 0.848,-0.172 1.664,-0.172 0.539,0 0.946,0.235 0.946,0.633 v 4.008 z m 3.668,1.637 c 2.652,0.426 3.82,1.43 4.551,2.973 V 33.996 c -0.742,1.559 -1.899,2.574 -4.551,2.973 0.426,-2.649 1.43,-3.821 2.992,-4.547 h -12.769 c 1.562,0.738 2.57,1.898 2.969,4.547 -2.653,-0.422 -3.821,-1.43 -4.551,-2.973 v 12.785 c 0.742,-1.558 1.898,-2.57 4.551,-2.972 -0.422,2.656 -1.43,3.824 -2.969,4.55 h 12.793 c -1.563,-0.742 -2.574,-1.894 -2.996,-4.55 m 6.797,-0.942 c 0,4.887 -4.247,9.875 -10.192,11.719 -5.945,-1.844 -10.219,-6.836 -10.219,-11.719 V 30.188 h 20.418 z m 0.527,0 V 29.656 h -21.461 v 13.196 c 0,5.183 4.449,10.324 10.586,12.218 l 0.156,0.047 0.156,-0.047 c 6.121,-1.906 10.571,-7.047 10.571,-12.226 M 359.66,31.465 h 0.32 l -0.074,-1.695 c 0,-0.071 -0.051,-0.125 -0.117,-0.137 h -5.461 c -0.066,0.012 -0.117,0.066 -0.117,0.137 l -0.074,1.695 h 0.32 v -0.059 c 0.023,-0.488 0.18,-1.066 0.793,-1.066 h 1.18 v 5.32 c 0.004,0.297 -0.223,0.543 -0.52,0.567 h -0.379 v 0.343 h 3.043 v -0.343 h -0.383 c -0.293,-0.024 -0.523,-0.27 -0.519,-0.567 v -5.32 h 1.18 c 0.609,0 0.765,0.578 0.789,1.066 v 0.071 z m -0.312,11.801 c 0,1.8 -0.782,3.007 -1.942,3.007 h -0.023 c -0.406,-0.003 -0.793,-0.168 -1.074,-0.453 -0.598,-0.695 -0.903,-1.593 -0.852,-2.507 0,-0.672 0.137,-2.872 1.934,-2.973 0.707,0.039 1.902,0.469 1.941,2.91 m 1.348,0.055 c 0,-2.051 -1.348,-3.496 -3.285,-3.524 -0.805,-0.008 -1.586,0.278 -2.192,0.805 -0.723,0.723 -1.121,1.703 -1.105,2.723 0,2.035 1.386,3.511 3.293,3.511 1.906,0 3.308,-1.468 3.308,-3.504 m 3.176,-6.746 h 2.086 v -0.297 h -0.133 c -0.285,0 -0.426,-0.144 -0.426,-0.484 v -3.945 c 0,-0.34 0.121,-0.489 0.426,-0.489 h 0.133 v -0.292 h -2.09 v 0.292 h 0.109 c 0.293,0 0.426,0.157 0.426,0.489 v 1.644 h -2.125 v -1.644 c 0,-0.332 0.137,-0.489 0.426,-0.489 h 0.106 v -0.292 h -2.114 v 0.292 h 0.11 c 0.293,0 0.425,0.141 0.425,0.489 v 3.945 c 0,0.356 -0.113,0.484 -0.425,0.484 h -0.11 v 0.297 h 2.078 v -0.297 h -0.105 c -0.281,0 -0.426,-0.148 -0.426,-0.484 v -1.766 h 2.125 v 1.766 c 0,0.344 -0.129,0.484 -0.426,0.484 h -0.109 z m 3.516,14.965 c -0.356,-0.23 -0.817,-0.195 -1.129,0.082 -0.192,0.188 -0.289,0.449 -0.27,0.715 0.035,0.266 0.192,0.5 0.426,0.633 l 0.242,0.148 c 0.25,0.125 0.477,0.289 0.668,0.492 0.152,0.2 0.102,0.485 -0.109,0.618 -0.156,0.125 -0.375,0.148 -0.555,0.054 -0.293,-0.144 -0.48,-0.441 -0.476,-0.769 v -0.051 h -0.192 v 1.133 h 0.184 v -0.035 c 0.008,-0.051 0.039,-0.09 0.078,-0.117 0.039,-0.012 0.078,-0.012 0.117,0 0.195,0.105 0.418,0.164 0.641,0.171 0.203,0 0.402,-0.062 0.57,-0.183 0.332,-0.238 0.445,-0.684 0.269,-1.055 -0.25,-0.348 -0.593,-0.621 -0.988,-0.789 l -0.058,-0.059 c -0.176,-0.074 -0.297,-0.238 -0.325,-0.425 0.008,-0.137 0.086,-0.266 0.207,-0.332 0.157,-0.09 0.352,-0.09 0.508,0 0.25,0.148 0.403,0.414 0.399,0.703 v 0.054 h 0.191 v -1.101 h -0.184 v 0.039 c -0.003,0.039 -0.023,0.074 -0.058,0.094 -0.051,0.023 -0.109,0.023 -0.156,0 m 3.496,-14.981 0.492,-1.586 h -0.313 v 0.051 c -0.203,0.684 -0.57,0.988 -1.187,0.988 h -1.356 c -0.109,0.004 -0.199,-0.086 -0.195,-0.195 V 33.93 h 1.473 c 0.211,0 0.308,0.226 0.308,0.425 v 0.11 h 0.313 V 32.84 h -0.313 v 0.109 c 0,0.176 -0.089,0.426 -0.308,0.426 h -1.461 v -1.801 h 1.59 c 0.39,0 0.648,0.305 0.679,0.793 v 0.071 h 0.278 l -0.102,-1.375 h -4.012 v 0.292 h 0.11 c 0.285,0 0.426,0.157 0.426,0.489 v 3.945 c 0,0.34 -0.129,0.484 -0.426,0.484 h -0.11 v 0.297 h 4.114 z m 2.972,6.746 c 0,1.477 -0.593,2.973 -1.921,2.973 -1.18,0 -1.938,-1.156 -1.938,-2.973 0,-1.152 0.281,-1.988 0.809,-2.492 0.289,-0.281 0.675,-0.445 1.082,-0.465 0.972,0 1.953,0.922 1.953,2.973 m 1.375,0.047 c -0.043,-2.82 -2.199,-3.574 -3.328,-3.574 -1.903,0 -3.286,1.5 -3.286,3.527 0,1.773 1.055,3.16 2.618,3.477 1.039,1.042 2.465,1.605 3.937,1.554 h 0.074 v -0.324 h -0.07 c -0.887,-0.066 -1.676,-0.582 -2.09,-1.371 1.321,-0.469 2.125,-1.719 2.125,-3.289 m 5.574,-13.363 h 0.297 v -0.352 h -2.09 v 0.352 h 0.333 c 0.222,-0.02 0.406,0.175 0.375,0.398 v 3.934 c 0,1.121 -0.965,1.632 -1.856,1.632 -0.918,-0.007 -1.641,-0.785 -1.582,-1.699 v -3.711 c 0,-0.297 0.234,-0.543 0.531,-0.554 h 0.168 v -0.352 h -2.644 v 0.352 h 0.156 c 0.297,0.007 0.535,0.257 0.527,0.554 v 3.664 c 0,1.438 1.129,2.434 2.742,2.434 1.614,0 2.657,-0.953 2.657,-2.32 v -3.934 c 0,-0.273 0.125,-0.398 0.386,-0.398 m 0.161,11.554 h 0.242 v -0.301 h -1.613 v 0.301 h 0.242 c 0.168,-0.015 0.308,0.125 0.293,0.293 V 45 c 0,0.848 -0.739,1.273 -1.477,1.273 -0.726,0 -1.297,-0.628 -1.219,-1.351 v -2.91 c 0,-0.223 0.168,-0.407 0.387,-0.426 h 0.109 v -0.297 h -2.023 v 0.27 h 0.074 c 0.227,0.015 0.399,0.199 0.399,0.425 v 2.891 c 0,1.145 0.906,1.941 2.195,1.941 1.293,0 2.125,-0.738 2.125,-1.843 v -3.102 c 0,-0.187 0.094,-0.293 0.27,-0.293 m 6.019,-10.191 h 0.109 V 31.09 h -1.636 v 0.297 h 0.121 c 0.203,-0.028 0.383,0.125 0.398,0.324 v 2.859 l -3.008,-3.48 h -1.476 v 0.297 h 0.078 c 0.207,0 0.332,0 0.422,0.129 l 0.187,0.222 0.153,0.176 v 4.051 c 0,0.219 -0.203,0.32 -0.399,0.32 h -0.129 v 0.301 h 1.641 v -0.301 h -0.105 c -0.211,0 -0.426,-0.109 -0.426,-0.32 v -3.356 l 3.398,3.954 0.02,0.019 h 0.226 v -4.863 c 0.02,-0.215 0.215,-0.364 0.426,-0.328 m 0.766,5.214 h 2.062 v -0.292 h -0.101 c -0.289,0 -0.426,-0.153 -0.426,-0.485 v -3.965 c 0,-0.332 0.133,-0.484 0.426,-0.484 h 0.101 v -0.293 h -2.062 v 0.293 h 0.093 c 0.309,0 0.426,0.152 0.426,0.484 v 3.946 c 0,0.339 -0.133,0.484 -0.426,0.484 h -0.093 z m 7.863,-5.23 h 0.074 v -0.301 h -1.387 v 0.301 h 0.153 c 0.062,0 0.121,0.031 0.16,0.082 0.035,0.051 0.043,0.113 0.019,0.172 l -1.273,3.137 -1.379,-3.137 c -0.027,-0.055 -0.027,-0.117 0,-0.172 0.035,-0.047 0.094,-0.082 0.152,-0.09 h 0.254 V 31.07 h -1.937 v 0.297 h 0.074 c 0.168,0 0.293,0.125 0.426,0.426 l 2.047,4.711 c 0.039,0.051 0.101,0.082 0.164,0.082 0.058,0 0.113,-0.035 0.137,-0.086 l 1.886,-4.699 c 0.153,-0.313 0.266,-0.422 0.422,-0.422 m 0.75,10.527 v 2.871 l -3.008,-3.468 h -1.504 v 0.293 h 0.079 c 0.23,0 0.347,0.039 0.425,0.132 l 0.078,0.086 c 0.09,0.098 0.172,0.18 0.282,0.321 v 4.011 c 0,0.227 -0.215,0.328 -0.426,0.328 h -0.117 v 0.293 h 1.629 v -0.281 h -0.106 c -0.203,0 -0.426,-0.101 -0.426,-0.324 v -3.355 l 3.399,3.953 0.023,0.019 h 0.219 v -4.879 c 0.016,-0.199 0.199,-0.347 0.398,-0.324 h 0.122 v -0.293 h -1.625 v 0.293 h 0.113 c 0.207,0 0.422,0.121 0.422,0.324 m 4.097,-5.32 0.512,-1.586 h -0.301 v 0.051 c -0.218,0.687 -0.578,0.996 -1.183,0.996 h -1.367 c -0.106,0 -0.196,-0.086 -0.196,-0.195 v -1.907 h 1.469 c 0.254,0 0.32,0.274 0.32,0.426 v 0.106 h 0.301 v -1.625 h -0.301 v 0.109 c 0,0.164 -0.09,0.426 -0.32,0.426 h -1.465 v -1.801 h 1.59 c 0.379,0 0.644,0.312 0.68,0.793 v 0.074 h 0.289 l -0.117,-1.379 h -4 v 0.301 h 0.113 c 0.285,0 0.422,0.152 0.422,0.48 v 3.95 c 0,0.34 -0.125,0.484 -0.422,0.484 h -0.113 v 0.293 z m -1.386,5.855 c 0.004,-0.25 0.148,-0.476 0.371,-0.593 0.285,-0.157 0.629,-0.149 0.902,0.027 0.449,0.25 0.734,0.719 0.746,1.234 v 0.075 h 0.313 v -1.899 h -0.313 v 0.059 c -0.008,0.07 -0.043,0.136 -0.101,0.176 -0.094,0.027 -0.2,0.015 -0.286,-0.036 -0.789,-0.382 -1.433,-0.332 -1.968,0.145 -0.336,0.32 -0.508,0.777 -0.465,1.242 0.051,0.453 0.308,0.859 0.699,1.098 0.129,0.078 0.27,0.164 0.422,0.246 0.449,0.223 0.852,0.519 1.195,0.883 0.278,0.343 0.192,0.847 -0.179,1.086 -0.278,0.23 -0.664,0.273 -0.985,0.101 -0.523,-0.258 -0.851,-0.789 -0.847,-1.371 v -0.078 h -0.313 v 1.949 h 0.297 v -0.047 c 0.016,-0.086 0.07,-0.16 0.144,-0.203 0.067,-0.035 0.145,-0.035 0.211,0 0.344,0.188 0.731,0.285 1.125,0.293 0.356,0.008 0.704,-0.105 0.989,-0.316 0.593,-0.426 0.789,-1.219 0.461,-1.871 -0.305,-0.594 -1.094,-1.028 -1.727,-1.375 l -0.113,-0.063 c -0.321,-0.137 -0.539,-0.437 -0.574,-0.781 m 4.457,-8.793 h -0.375 v -1.996 c 0.117,-0.051 0.246,-0.07 0.375,-0.059 0.578,-0.031 1.066,0.414 1.093,0.992 -0.019,0.59 -0.504,1.055 -1.093,1.047 m 1.742,2.973 h 1.336 v -0.293 h -0.11 c -0.144,0 -0.265,-0.145 -0.394,-0.293 l -1.559,-2.031 c 0.645,-0.172 1.11,-0.739 1.156,-1.403 0.02,-0.382 -0.121,-0.753 -0.39,-1.023 -0.406,-0.379 -1.141,-0.535 -2.227,-0.48 h -1.48 v 0.296 h 0.137 c 0.273,0 0.421,0.164 0.421,0.489 v 3.945 c 0,0.34 -0.121,0.488 -0.421,0.488 h -0.137 v 0.293 h 2.086 v -0.293 h -0.114 c -0.289,0 -0.421,-0.152 -0.421,-0.488 v -1.699 h 0.234 l 1.879,2.472 z m 1.308,10.191 0.485,-1.609 h -0.317 v 0.051 c -0.218,0.711 -0.586,1.027 -1.187,1.027 h -1.25 c -0.098,0 -0.203,-0.133 -0.203,-0.262 v -3.906 c 0,-0.351 0.133,-0.512 0.425,-0.512 h 0.11 V 41.27 h -2.086 v 0.296 h 0.121 c 0.273,0 0.426,0.168 0.426,0.512 v 3.906 c 0,0.426 -0.235,0.5 -0.426,0.5 h -0.121 v 0.293 h 4.031 z m 2.547,-2.246 0.676,-1.554 0.672,1.554 z m -1.719,1.953 h -0.175 v 0.293 h 1.57 v -0.293 h -0.141 c -0.086,0 -0.168,-0.039 -0.218,-0.109 -0.028,-0.051 -0.028,-0.109 0,-0.156 l 0.484,-1.149 h 1.801 l 0.496,1.149 c 0.027,0.054 0.019,0.125 -0.02,0.172 -0.039,0.058 -0.101,0.093 -0.172,0.093 h -0.222 v 0.293 h 2.019 v -0.293 h -0.132 c -0.165,0 -0.309,-0.14 -0.426,-0.421 l -2.074,-4.793 c 0,0 -0.047,-0.106 -0.137,-0.118 -0.067,-0.007 -0.133,0.024 -0.168,0.082 l -2.012,4.817 c -0.09,0.199 -0.25,0.426 -0.476,0.426 m 3.136,-12.063 c -0.3,-0.574 -1.101,-1.039 -1.808,-1.422 -0.309,-0.14 -0.524,-0.429 -0.563,-0.765 0,-0.258 0.137,-0.497 0.363,-0.625 0.29,-0.157 0.645,-0.137 0.922,0.043 0.43,0.253 0.696,0.718 0.692,1.218 v 0.078 h 0.285 V 31.07 h -0.274 v 0.067 c -0.003,0.058 -0.035,0.117 -0.085,0.152 -0.106,0.027 -0.219,0.016 -0.317,-0.039 -0.808,-0.363 -1.426,-0.312 -1.949,0.16 -0.34,0.32 -0.516,0.778 -0.477,1.242 0.055,0.457 0.321,0.864 0.723,1.094 l 0.391,0.238 c 0.449,0.231 0.863,0.528 1.218,0.887 0.293,0.34 0.204,0.863 -0.183,1.09 -0.274,0.23 -0.66,0.273 -0.977,0.109 -0.527,-0.257 -0.855,-0.797 -0.847,-1.382 v -0.071 h -0.309 v 1.965 h 0.289 v -0.051 c 0.02,-0.093 0.086,-0.168 0.172,-0.207 0.059,-0.027 0.129,-0.027 0.187,0 0.332,0.184 0.707,0.281 1.09,0.285 0.364,0.004 0.719,-0.109 1.012,-0.324 0.594,-0.422 0.789,-1.215 0.461,-1.867 m 1.117,2.152 h 2.086 v -0.293 h -0.109 c -0.293,0 -0.426,-0.152 -0.426,-0.484 v -3.93 c 0,-0.332 0.137,-0.488 0.426,-0.488 h 0.109 v -0.301 h -2.086 v 0.301 h 0.133 c 0.281,0 0.426,0.152 0.426,0.488 v 3.946 c 0,0.339 -0.125,0.484 -0.426,0.484 h -0.133 z m 7.41,-4.09 h 0.262 l -0.059,-1.312 c -0.004,-0.055 -0.05,-0.102 -0.105,-0.109 h -4.41 c -0.059,0.007 -0.102,0.05 -0.114,0.105 l -0.046,1.316 h 0.273 v -0.054 c 0.035,-0.531 0.234,-0.793 0.602,-0.793 h 1.007 v 4.207 c 0,0.324 -0.136,0.453 -0.445,0.453 h -0.098 v 0.293 h 2.063 v -0.293 h -0.102 c -0.296,0 -0.425,-0.125 -0.425,-0.453 v -4.207 h 1.011 c 0.235,0 0.547,0.082 0.59,0.793 V 32.5 Z m 2.684,9.231 c 0.656,-0.063 1.305,0.172 1.769,0.637 0.383,0.476 0.582,1.074 0.563,1.683 0,1.446 -0.852,2.27 -2.32,2.27 -0.153,0.008 -0.305,-0.008 -0.454,-0.043 v -4.473 c 0.141,-0.058 0.293,-0.078 0.446,-0.055 m 0,-0.425 h -2.121 v 0.293 h 0.117 c 0.176,0 0.426,0.05 0.426,0.511 v 3.907 c 0,0.347 -0.125,0.5 -0.426,0.5 h -0.117 v 0.293 h 2.547 c 1.574,0.058 2.878,-1.204 2.875,-2.778 0.027,-0.703 -0.223,-1.386 -0.696,-1.906 -0.566,-0.594 -1.441,-0.879 -2.594,-0.852 m 3.293,-9.898 v -0.301 h -1.484 v 0.313 h 0.211 c 0.043,0.004 0.082,0.031 0.102,0.07 0.027,0.055 0.027,0.117 0,0.172 l -1.161,1.984 -1.273,-1.945 c -0.035,-0.066 -0.035,-0.141 0,-0.207 0.027,-0.047 0.078,-0.078 0.133,-0.078 h 0.203 V 31.07 h -2.035 v 0.313 h 0.078 c 0.129,0 0.308,0.043 0.496,0.394 l 1.613,2.489 v 1.539 c 0,0.351 -0.125,0.5 -0.426,0.5 h -0.109 v 0.297 h 2.121 v -0.297 h -0.109 c -0.305,0 -0.426,-0.133 -0.426,-0.477 V 34.23 l 1.434,-2.472 c 0.105,-0.207 0.308,-0.348 0.543,-0.371 h 0.086 z" /><path
         id="path132"
         style="fill:#231f20;fill-opacity:1;fill-rule:nonzero;stroke:none"
         d="m 501.828,33.316 c -0.195,0 -0.258,-0.062 -0.453,-0.062 -0.129,0 -0.258,0 -0.449,0.062 h -0.067 v -0.062 c 0.067,-0.84 0.067,-1.613 0.067,-2.387 v -3.414 c -0.645,0 -1.356,0.063 -1.871,0.129 h -0.129 v -0.129 c 0,-0.129 0.066,-0.195 0.066,-0.258 0,-0.066 0,-0.195 -0.066,-0.257 v -0.129 h 0.066 c 0.836,0 1.547,0.062 2.383,0.062 0.84,0 1.547,0 2.387,-0.062 h 0.062 v 0.062 c 0,0.129 -0.062,0.195 -0.062,0.258 0,0.066 0,0.195 0.062,0.258 v 0.129 h -0.258 c -0.515,-0.063 -1.289,-0.129 -1.867,-0.129 v 3.418 c 0,0.836 0.063,1.609 0.063,2.383 z m 8.766,0 c -0.192,0 -0.258,-0.062 -0.449,-0.062 -0.129,0 -0.262,0 -0.454,0.062 h -0.066 v -0.062 c 0.066,-0.84 0.066,-1.613 0.066,-2.387 v -0.773 h -3.675 v 0.773 c 0,0.84 0.066,1.613 0.066,2.387 v 0.062 h -0.066 c -0.192,0 -0.258,-0.062 -0.45,-0.062 -0.128,0 -0.257,0 -0.453,0.062 h -0.062 v -0.062 c 0.062,-0.84 0.062,-1.613 0.062,-2.387 v -1.609 c 0,-0.84 -0.062,-1.613 -0.062,-2.387 h 0.062 c 0.196,0 0.258,0.067 0.453,0.067 0.129,0 0.258,0 0.45,-0.067 h 0.066 v 0.067 c -0.066,0.773 -0.066,1.546 -0.066,2.382 v 0.258 h 3.675 v -0.32 c 0,-0.84 -0.066,-1.613 -0.066,-2.387 h 0.066 c 0.192,0 0.258,0.067 0.454,0.067 0.128,0 0.257,0 0.449,-0.067 h 0.066 v 0.067 c -0.066,0.773 -0.066,1.546 -0.066,2.382 v 1.547 c 0,0.84 0.066,1.613 0.066,2.387 l -0.066,0.062 c 0.066,-0.062 0,0 0,0 z m 5.414,0 c -0.516,0 -1.094,-0.062 -1.676,-0.062 -0.578,0 -1.094,0 -1.676,0.062 h -0.062 v -0.062 c 0.062,-0.84 0.062,-1.613 0.062,-2.387 v -1.609 c 0,-0.84 -0.062,-1.613 -0.062,-2.387 h 0.062 c 0.582,0.067 1.098,0.067 1.676,0.067 0.582,0 1.098,0 1.613,-0.067 h 0.063 v 0.645 h -0.063 c -0.773,-0.129 -1.226,-0.192 -2.386,-0.192 0,0.321 -0.063,0.707 -0.063,1.094 v 1.16 c 1.031,0 1.609,-0.062 2.192,-0.129 h 0.062 v 0.711 h -0.062 c -0.583,-0.066 -1.676,-0.066 -2.192,-0.066 v 2.578 c 0.836,0 1.867,0 2.449,-0.129 h 0.129 z m 9.219,-6.445 v -0.062 h 0.128 c 0.129,0 0.258,0.062 0.387,0.062 0.067,0 0.196,0 0.258,-0.062 h 0.129 v 0.062 c -0.063,0.84 -0.191,2.449 -0.191,3.805 0,1.676 -0.969,2.707 -2.645,2.707 -0.902,0 -1.613,-0.258 -2,-0.711 -0.449,-0.449 -0.645,-1.16 -0.645,-1.996 0,-0.582 0.067,-0.969 0.067,-1.418 0,-1.031 -0.067,-1.871 -0.067,-2.387 h 0.067 c 0.191,0 0.32,0.067 0.449,0.067 0.129,0 0.258,0 0.387,-0.067 h 0.066 v 0.067 c -0.066,0.515 -0.129,1.804 -0.129,3.156 0,1.289 0,2.836 2,2.836 0.965,0 1.418,-0.45 1.739,-1.032 0.257,-0.578 0.257,-1.351 0.257,-1.933 -0.191,-1.867 -0.191,-2.707 -0.257,-3.094 z m 8.187,6.574 h -0.129 v -0.062 l 0.063,-0.067 -0.063,0.067 v 0.062 c -1.355,-1.609 -2.965,-3.351 -4.578,-4.961 v 1.739 c 0,0.84 0.066,2.707 0.066,3.093 v 0.129 h -0.066 c -0.129,0 -0.258,-0.062 -0.258,-0.062 -0.129,0 -0.258,0 -0.32,0.062 H 528 v -0.129 c 0.063,-0.386 0.191,-2.769 0.191,-3.996 v -2.511 h 0.258 c 1.418,1.546 3.418,3.671 4.578,4.898 0,-1.613 0,-3.352 -0.066,-4.707 v -0.129 h 0.066 c 0.129,0 0.258,0.067 0.258,0.067 0.129,0 0.195,0 0.258,-0.067 h 0.129 V 27 c -0.129,0.516 -0.258,2.387 -0.258,3.094 z m 3.031,-0.129 c -0.195,0 -0.257,-0.062 -0.453,-0.062 -0.129,0 -0.258,0 -0.449,0.062 h -0.066 v -0.062 c 0.066,-0.84 0.066,-1.613 0.066,-2.387 v -1.609 c 0,-0.84 -0.066,-1.613 -0.066,-2.387 h 0.066 c 0.191,0 0.258,0.067 0.449,0.067 0.129,0 0.258,0 0.453,-0.067 h 0.063 v 0.067 c -0.063,0.773 -0.063,1.609 -0.063,2.32 v 1.547 c 0,0.836 0.063,1.609 0.063,2.383 l -0.063,0.128 c 0.063,-0.062 0,0 0,0 z m 1.352,-6.445 c 0.195,0 0.324,0.067 0.453,0.067 0.191,0 0.32,0 0.449,-0.067 0.516,1.613 1.356,3.547 2.063,5.414 0.711,-1.48 1.742,-4.187 2.062,-5.414 0.129,0 0.258,0.067 0.324,0.067 0.129,0 0.258,0 0.321,-0.067 -0.965,2.129 -1.867,4.192 -2.641,6.317 -0.129,0 -0.258,-0.063 -0.258,-0.063 -0.129,0 -0.257,0 -0.257,0.063 -0.454,-1.481 -1.614,-4.188 -2.516,-6.317 z m 10.508,6.445 c -0.516,0 -1.094,-0.062 -1.676,-0.062 -0.578,0 -1.094,0 -1.676,0.062 h -0.066 v -0.062 c 0.066,-0.84 0.066,-1.613 0.066,-2.387 v -1.609 c 0,-0.84 -0.066,-1.613 -0.066,-2.387 h 0.066 c 0.582,0 1.098,0.067 1.676,0.067 0.582,0 1.098,0 1.613,-0.067 h 0.063 v 0.645 h -0.063 c -0.773,-0.129 -1.226,-0.192 -2.387,-0.192 0,0.321 -0.062,0.707 -0.062,1.094 v 1.16 c 1.031,0 1.609,-0.062 2.191,-0.129 h 0.063 v 0.711 c -0.578,-0.066 -1.676,-0.066 -2.192,-0.066 v 2.578 c 0.84,0 1.872,0 2.45,-0.129 h 0.129 z m 7.156,-0.449 c 0.129,-0.324 0.129,-0.515 0.191,-0.84 v -0.062 h 0.196 v 0.062 -0.062 h 0.062 v 0.062 c 0.195,0.387 0.645,0.903 1.356,0.903 0.839,0 1.289,-0.578 1.289,-1.289 0,-0.836 -0.707,-1.032 -1.352,-1.352 -0.777,-0.258 -1.484,-0.711 -1.484,-1.805 0,-1.031 0.836,-1.804 2.062,-1.804 0.582,0 1.032,0.129 1.356,0.449 l 0.062,0.066 v 0.063 c -0.129,0.258 -0.191,0.387 -0.258,0.773 v 0.067 h -0.257 v -0.067 c -0.129,-0.32 -0.387,-0.836 -1.032,-0.836 -0.644,0 -1.097,0.45 -1.16,1.094 0,0.84 0.711,1.031 1.356,1.356 0.773,0.257 1.48,0.644 1.48,1.675 0,1.16 -0.836,2.125 -2.32,2.125 -0.774,0 -1.227,-0.32 -1.547,-0.578 z m 6.316,0.449 c -0.191,0 -0.257,-0.062 -0.449,-0.062 -0.129,0 -0.258,0 -0.453,0.062 h -0.062 v -0.062 c 0.062,-0.84 0.062,-1.613 0.062,-2.387 v -1.609 c 0,-0.84 -0.062,-1.613 -0.062,-2.387 h 0.062 c 0.195,0 0.258,0.067 0.453,0.067 0.129,0 0.258,0 0.449,-0.067 h 0.067 v 0.067 c -0.067,0.835 -0.067,1.609 -0.067,2.382 v 1.547 c 0,0.84 0.067,1.613 0.067,2.387 l -0.067,0.062 c 0.067,-0.062 0,0 0,0 z m 4.192,0 c -0.196,0 -0.258,-0.062 -0.453,-0.062 -0.129,0 -0.258,0 -0.45,0.062 H 565 v -0.062 c 0.066,-0.84 0.066,-1.613 0.066,-2.387 v -3.414 c -0.644,0 -1.355,0.063 -1.871,0.129 h -0.129 v -0.129 c 0,-0.129 0.067,-0.195 0.067,-0.258 0,-0.066 0,-0.195 -0.067,-0.257 v -0.129 h 0.067 c 0.773,0.062 1.547,0.062 2.32,0.062 0.836,0 1.547,0 2.383,-0.062 h 0.066 v 0.062 c 0,0.129 -0.066,0.195 -0.066,0.258 0,0.066 0,0.195 0.066,0.258 v 0.129 h -0.129 c -0.515,-0.063 -1.289,-0.129 -1.871,-0.129 v 3.418 c 0,0.836 0.067,1.609 0.067,2.383 z m 2.64,-6.445 -0.062,-0.129 h 0.129 c 0.195,0 0.324,0.067 0.515,0.067 0.196,0 0.325,0 0.516,-0.067 h 0.066 v 0.129 c 0.516,1.031 1.094,2 1.676,3.094 0.578,-0.836 1.223,-2.063 1.676,-3.094 v -0.062 h 0.063 c 0.128,0 0.257,0.062 0.324,0.062 0.062,0 0.258,0 0.32,-0.062 h 0.195 l -0.066,0.062 c -1.16,1.805 -1.867,2.836 -2.191,3.609 0,0.903 0,2.129 0.066,2.708 v 0.128 h -0.066 c -0.192,0 -0.258,-0.062 -0.45,-0.062 -0.129,0 -0.257,0 -0.453,0.062 h -0.062 v -0.062 c 0.062,-0.645 0.062,-1.613 0.062,-2.578 -0.449,-0.711 -1.867,-3.223 -2.258,-3.805 z m -66.136,15.215 c 0,0.516 -0.258,1.418 -1.032,2.125 -0.582,0.644 -1.097,0.644 -1.355,0.644 -0.645,0 -1.031,-0.449 -0.965,-1.289 0.063,-0.578 0.387,-1.48 1.031,-2.125 0.516,-0.453 0.903,-0.644 1.352,-0.644 0.711,0.129 0.969,0.644 0.969,1.289 z m -1.676,-0.453 c -0.582,0.773 -0.902,1.871 -0.969,2.387 0,0.32 0.129,0.644 0.387,0.644 0.258,0 0.453,-0.129 0.773,-0.516 0.387,-0.582 0.84,-1.871 0.84,-2.32 0,-0.258 -0.066,-0.644 -0.387,-0.644 -0.195,0 -0.453,0.129 -0.644,0.449 z m 3.93,-0.192 c -0.063,0.192 -0.129,0.45 -0.258,0.836 -0.258,1.032 -0.516,1.934 -0.836,3.032 -0.258,0.836 -0.582,1.351 -0.774,1.546 -0.129,0.129 -0.582,0.516 -1.16,0.516 -0.515,0 -0.711,-0.324 -0.711,-0.453 0,-0.191 0.129,-0.32 0.258,-0.387 0.067,-0.062 0.195,0 0.258,0.067 0.258,0.257 0.516,0.386 0.773,0.386 0.196,0 0.387,-0.066 0.645,-0.839 0.453,-1.481 0.773,-3.094 1.226,-4.641 h -0.839 c -0.129,-0.129 -0.063,-0.258 0.066,-0.32 h 0.836 c 0.258,-0.84 0.516,-1.614 1.031,-2.258 0.453,-0.578 0.969,-0.836 1.485,-0.836 0.32,0 0.773,0.258 0.773,0.644 0,0.258 -0.258,0.516 -0.387,0.516 -0.066,0 -0.129,-0.066 -0.129,-0.195 -0.066,-0.516 -0.257,-0.707 -0.515,-0.707 -0.258,0 -0.453,0.191 -0.711,0.515 -0.449,0.645 -0.645,1.352 -0.836,2.192 h 1.16 c 0.063,0.129 0.063,0.258 -0.129,0.32 z m 4.511,2.125 c -0.258,0.711 -0.836,1.934 -1.351,3.805 -0.196,0 -0.324,-0.129 -0.582,-0.129 -0.258,0 -0.45,0.063 -0.645,0.129 1.289,-2.836 3.485,-7.543 4.449,-10.121 0.129,0 0.258,0.066 0.325,0.066 0.129,0 0.257,0 0.32,-0.066 1.098,3.031 4.32,10.055 4.32,10.121 -0.258,-0.066 -0.515,-0.129 -0.84,-0.129 -0.386,0 -0.644,0.063 -0.902,0.129 -0.516,-1.742 -1.094,-2.965 -1.418,-3.805 z m 1.871,-4.316 -1.484,3.543 h 3.098 z m 10.25,8.121 c -0.195,0 -1.871,-0.066 -2.32,-0.066 -0.453,0 -0.773,0 -1.547,0.066 0.129,-1.418 0.192,-2.449 0.192,-5.801 0,-2.129 -0.063,-2.707 -0.129,-4.254 0.84,0.063 1.547,0.063 2.386,0.063 2.579,0 3.997,0 5.352,1.098 1.289,0.964 1.609,2.449 1.609,3.609 0,3.672 -2.707,5.285 -5.543,5.285 z m 2.387,-8.574 c -1.031,-0.774 -2.258,-0.774 -3.418,-0.774 -0.711,0 -0.84,0 -1.289,0.067 v 4.125 c 0,2.64 0,2.965 0.063,4.383 0.515,0.062 0.839,0.129 1.546,0.129 0.645,0 2,0 2.969,-0.711 1.352,-0.965 1.61,-2.578 1.61,-3.739 0,-1.16 -0.258,-2.578 -1.481,-3.48 z m 9.473,2.773 c -0.063,0.192 -0.063,0.258 -0.063,0.516 0,0.191 0.063,0.258 0.063,0.449 -0.774,-0.129 -1.61,-0.191 -2.254,-0.191 -0.387,0 -0.84,0 -1.16,0.062 0,0.645 -0.067,1.289 -0.067,1.871 0,0.774 0.067,1.868 0.067,2.254 0.902,0 2.062,0 3.804,-0.191 -0.066,0.191 -0.066,0.258 -0.066,0.515 0,0.258 0,0.321 0.066,0.45 -0.711,-0.129 -1.355,-0.129 -2,-0.129 -1.097,0 -2.257,0.066 -3.351,0.129 0.129,-1.094 0.191,-1.996 0.191,-5.157 0,-1.418 -0.062,-3.414 -0.129,-4.832 1.032,0.129 2,0.129 3.032,0.129 0.773,0 1.418,0 2.191,-0.129 -0.063,0.192 -0.063,0.321 -0.063,0.516 0,0.258 0,0.32 0.063,0.449 -0.516,-0.129 -1.031,-0.191 -2.32,-0.191 -0.516,0 -0.84,0 -1.356,0.062 v 3.547 c 1.031,0 2.192,0 3.352,-0.129 z m 5.351,4.961 c 0.774,0 1.934,-0.062 2.645,-0.191 0,0.129 -0.067,0.258 -0.067,0.449 0,0.258 0.067,0.387 0.067,0.516 -0.902,0 -1.547,-0.129 -3.094,-0.129 -1.289,0 -1.613,0.066 -2.449,0.129 0.129,-1.867 0.129,-3.414 0.129,-5.285 0,-1.934 -0.129,-4.059 -0.129,-4.704 0.258,0.063 0.387,0.129 0.836,0.129 0.453,0 0.644,-0.066 0.902,-0.129 -0.129,3.672 -0.129,4.641 -0.129,9.215 z m 5.543,-2.965 c -0.258,0.711 -0.836,1.934 -1.351,3.805 -0.196,0 -0.324,-0.129 -0.582,-0.129 -0.258,0 -0.45,0.063 -0.645,0.129 1.289,-2.836 3.481,-7.543 4.449,-10.121 0.129,0 0.258,0.066 0.325,0.066 0.129,0 0.257,0 0.32,-0.066 1.098,3.031 4.32,10.055 4.32,10.121 -0.258,-0.066 -0.515,-0.129 -0.84,-0.129 -0.386,0 -0.644,0.063 -0.902,0.129 -0.516,-1.742 -1.094,-2.965 -1.418,-3.805 z m 1.809,-4.316 -1.484,3.543 h 3.093 z m 6.894,-1.934 c 0.258,0.063 0.387,0.129 0.84,0.129 0.449,0 0.578,-0.066 0.836,-0.129 -0.129,1.739 -0.129,3.481 -0.129,5.157 0,2.578 0.067,3.738 0.129,4.832 -0.258,-0.063 -0.578,-0.129 -0.902,-0.129 -0.32,0 -0.516,0.066 -0.774,0.129 0.129,-1.547 0.196,-2.321 0.196,-5.157 -0.067,-2.062 -0.067,-2.191 -0.196,-4.832 z m 8.254,10.055 c -0.195,0 -1.871,-0.066 -2.32,-0.066 -0.387,0 -0.773,0 -1.547,0.066 0.129,-1.418 0.192,-2.449 0.192,-5.801 0,-2.129 -0.063,-2.707 -0.129,-4.254 0.839,0.063 1.547,0.063 2.386,0.063 2.578,0 3.996,0 5.348,1.098 1.289,0.964 1.613,2.449 1.613,3.609 -0.129,3.672 -2.707,5.285 -5.543,5.285 z m 2.383,-8.574 c -1.031,-0.774 -2.254,-0.774 -3.414,-0.774 -0.711,0 -0.84,0 -1.289,0.067 -0.066,1.351 -0.066,2.836 -0.066,4.125 0,2.64 0,2.965 0.066,4.383 0.516,0.062 0.836,0.129 1.547,0.129 0.644,0 1.996,0 2.965,-0.711 1.351,-0.965 1.609,-2.578 1.609,-3.739 0,-1.16 -0.191,-2.578 -1.418,-3.48 z m 9.992,2.773 c 0,0.192 -0.062,0.258 -0.062,0.516 0,0.191 0.062,0.258 0.062,0.449 -0.773,-0.129 -1.609,-0.191 -2.254,-0.191 -0.386,0 -0.839,0 -1.16,0.062 v 1.871 c 0,0.774 0,1.868 0.063,2.254 0.902,0 2.062,0 3.804,-0.191 -0.066,0.191 -0.066,0.258 -0.066,0.515 0,0.258 0,0.321 0.066,0.45 -0.71,-0.129 -1.355,-0.129 -2,-0.129 -1.093,0 -2.253,0.066 -3.351,0.129 0.129,-1.094 0.195,-1.996 0.195,-5.157 0,-1.418 -0.066,-3.414 -0.133,-4.832 1.036,0.129 2,0.129 3.032,0.129 0.773,0 1.418,0 2.191,-0.129 0,0.192 -0.062,0.321 -0.062,0.516 0,0.258 0,0.32 0.062,0.449 -0.516,-0.129 -1.031,-0.191 -2.32,-0.191 -0.516,0 -0.836,0 -1.352,0.062 -0.066,0.582 -0.066,0.84 -0.066,1.676 v 1.871 c 1.097,0 2.258,0 3.351,-0.129 z m -74.453,-6.32 h 74.711 v -0.129 h -74.711 z m 55.629,-2.062 c -0.516,-0.579 -1.933,-2.45 -2.449,-3.028 0.711,-0.129 1.871,-0.644 1.871,-1.805 0,-0.582 -0.258,-0.968 -0.582,-1.226 -0.32,-0.258 -0.836,-0.32 -1.352,-0.32 -0.324,0 -0.711,0.062 -1.031,0.062 -0.324,0 -0.711,0 -1.031,-0.062 h -0.067 v 0.062 c 0.067,0.84 0.067,1.613 0.067,2.387 v 1.609 c 0,0.84 -0.067,1.613 -0.067,2.387 v 0.062 h 0.067 c 0.191,0 0.258,-0.062 0.449,-0.062 0.129,0 0.258,0 0.453,0.062 h 0.063 v -0.062 c -0.063,-0.84 -0.063,-1.613 -0.063,-2.387 v -0.578 h 0.258 c 0.836,0.836 1.996,2.449 2.383,3.027 v 0.067 h 0.066 c 0.192,0 0.321,-0.067 0.516,-0.067 0.191,0 0.32,0 0.516,0.067 h 0.191 z m -3.223,-3.415 c -0.257,0 -0.386,0 -0.578,-0.066 v -0.449 c 0,-0.645 0,-1.289 0.063,-1.934 0.195,0 0.453,-0.066 0.84,-0.066 0.644,0 1.351,0.258 1.351,1.16 0,1.031 -0.965,1.355 -1.676,1.355 z" /><path
         id="path134"
         style="fill:#ffffff;fill-opacity:1;fill-rule:nonzero;stroke:none"
         d="m 483.969,52.527 c -6.637,-2.836 -10.121,-8.121 -10.121,-15.535 h 20.371 c -0.063,7.414 -3.543,12.699 -10.25,15.535 z" /><path
         id="path136"
         style="fill:#231f20;fill-opacity:1;fill-rule:nonzero;stroke:none"
         d="m 490.094,38.863 h -0.645 v -0.84 h -0.836 v -0.835 l -0.386,0.191 c -0.516,0.195 -0.969,0.324 -2.067,0.324 -1.289,0 -1.867,0.258 -2.125,0.516 -0.258,-0.258 -0.84,-0.516 -2.129,-0.516 -1.093,0 -1.547,-0.195 -2.062,-0.324 l -0.449,-0.191 v 0.835 h -0.84 v 0.84 h -0.836 v 8.313 h 5.605 c 0,0.387 0.258,0.711 0.711,0.711 0.32,0 0.645,-0.258 0.707,-0.645 0,0 0.067,0 0.129,-0.066 h 5.609 v -8.313 z" /><path
         id="path138"
         style="fill:#005a9c;fill-opacity:1;fill-rule:nonzero;stroke:none"
         d="m 473.848,27.645 h 20.371 v 8.898 h -20.371 z" /><path
         id="path140"
         style="fill:#231f20;fill-opacity:1;fill-rule:nonzero;stroke:none"
         d="m 483.969,52.527 c -6.637,-2.836 -10.055,-8.121 -10.121,-15.535 h 20.371 c -0.063,7.414 -3.543,12.699 -10.25,15.535 z m 10.25,-24.882 v 8.898 h -20.371 v -8.898 z m 0.969,-0.965 h -22.305 v 10.183 c 0,7.992 3.676,13.602 10.957,16.696 l 0.195,0.066 0.192,-0.066 c 7.285,-3.028 10.961,-8.704 10.961,-16.696 z" /><path
         id="path142"
         style="fill:#ed1c2e;fill-opacity:1;fill-rule:nonzero;stroke:none"
         d="m 497.57,48.016 c -2.578,0.582 -4.703,1.547 -6.121,2.707 v 0.066 h -0.066 l 0.902,2.063 c -1.867,0.902 -4.512,1.609 -8.058,1.609 h -0.129 c -3.543,0 -6.25,-0.707 -8.055,-1.609 l 0.836,-2 0.066,-0.063 c -1.355,-1.226 -3.484,-2.191 -6.125,-2.711 v 3.289 c 1.289,0.387 2.063,0.774 2.707,1.356 l -0.257,0.578 -0.645,1.226 v 0.192 c 2.191,1.933 6.574,3.351 11.602,3.351 h 0.128 c 5.032,0 9.415,-1.351 11.606,-3.351 l -1.098,-2.063 c 0.711,-0.644 1.485,-0.902 2.707,-1.351 z" /><path
         id="path144"
         style="fill:#ffffff;fill-opacity:1;fill-rule:nonzero;stroke:none"
         d="m 474.301,54.398 c 0,0.063 -0.067,0.063 0,0 -0.129,0.192 -0.129,0.258 0,0.321 0.062,0.066 0.129,0 0.191,-0.063 0.067,-0.129 0,-0.195 -0.062,-0.324 -0.067,-0.129 -0.129,-0.258 -0.196,-0.32 0,-0.129 0,-0.196 0.067,-0.258 0.129,-0.258 0.32,-0.258 0.644,-0.195 0.258,0.195 0.325,0.324 0.258,0.644 v 0.067 l -0.258,-0.196 c 0,-0.191 0,-0.258 -0.062,-0.258 -0.067,-0.062 -0.133,0 -0.195,0.067 -0.067,0.129 0,0.191 0.128,0.32 0.067,0.129 0.129,0.258 0.129,0.324 0,0.063 0,0.192 -0.062,0.258 -0.195,0.258 -0.391,0.32 -0.711,0.258 -0.258,-0.195 -0.324,-0.387 -0.195,-0.711 l 0.066,-0.062 z m 1.742,-0.324 -0.387,0.969 c -0.066,0.258 -0.129,0.32 0,0.32 0.129,0.067 0.192,-0.062 0.258,-0.258 l 0.387,-0.902 0.32,0.129 -0.32,0.84 c 0,0.062 -0.067,0.062 -0.067,0.129 0,0.129 -0.062,0.258 -0.191,0.258 -0.129,0.129 -0.258,0.129 -0.516,0 -0.195,0 -0.257,-0.129 -0.324,-0.325 0,-0.191 0.067,-0.32 0.195,-0.578 l 0.321,-0.84 z m 1.223,1.031 0.129,-0.32 h 0.066 c 0.129,0.063 0.191,0.129 0.129,0.258 -0.129,0.129 -0.129,0.129 -0.324,0.062 0,0.067 0,0.067 0,0 z m -0.645,0.903 0.387,0.129 c 0.195,0.066 0.324,0.066 0.453,0 0.129,-0.063 0.191,-0.192 0.258,-0.258 0.062,-0.191 0,-0.258 -0.129,-0.387 0.191,-0.062 0.258,-0.191 0.258,-0.258 0.062,-0.191 0,-0.257 -0.067,-0.386 -0.062,-0.129 -0.191,-0.258 -0.32,-0.258 l -0.387,-0.129 z m 0.387,-0.192 0.129,-0.386 c 0.195,0.062 0.258,0.129 0.195,0.258 0,0.128 -0.066,0.191 -0.324,0.128 0.066,0 0,0 0,0 z m 3.094,0.387 c -0.063,0.449 -0.258,0.578 -0.645,0.516 -0.258,-0.067 -0.32,-0.129 -0.387,-0.258 -0.062,-0.129 0,-0.324 0,-0.645 0.067,-0.257 0.129,-0.515 0.258,-0.644 0.129,-0.129 0.258,-0.195 0.453,-0.129 0.321,0.062 0.449,0.258 0.387,0.707 l -0.324,-0.062 c 0.066,-0.258 0,-0.258 -0.129,-0.325 -0.192,-0.062 -0.192,0.129 -0.258,0.453 -0.062,0.321 -0.129,0.516 0.066,0.579 0.129,0 0.192,-0.063 0.258,-0.258 v -0.063 c -0.066,0 0.321,0.129 0.321,0.129 z m 0.386,0.645 0.325,0.062 0.062,-0.644 h 0.066 c 0.129,0 0.192,0.129 0.192,0.257 v 0.387 l 0.453,0.067 c -0.129,-0.129 -0.066,-0.258 -0.066,-0.454 0,-0.191 0,-0.257 -0.129,-0.386 0.195,-0.063 0.257,-0.192 0.257,-0.321 0,-0.195 0,-0.257 -0.128,-0.324 -0.129,-0.129 -0.258,-0.129 -0.45,-0.129 l -0.386,-0.129 z m 0.516,-0.84 0.066,-0.387 h 0.063 c 0.195,0 0.258,0.067 0.195,0.258 -0.066,0.066 -0.129,0.129 -0.324,0.129 z m 1.484,-0.516 -0.066,1.031 c 0,0.258 0,0.325 0.129,0.325 0.129,0 0.129,-0.129 0.129,-0.258 l 0.066,-1.031 h 0.387 l -0.067,0.902 v 0.129 c 0,0.191 0,0.258 -0.128,0.387 -0.129,0.128 -0.258,0.191 -0.45,0.191 -0.195,0 -0.324,-0.063 -0.386,-0.258 -0.067,-0.129 -0.067,-0.32 -0.067,-0.578 l 0.067,-0.84 z m 2.125,1.031 c 0,0.454 -0.191,0.645 -0.515,0.645 -0.258,0 -0.321,-0.063 -0.45,-0.258 -0.066,-0.129 -0.128,-0.32 -0.128,-0.644 0,-0.321 0,-0.516 0.128,-0.645 0.129,-0.129 0.258,-0.258 0.45,-0.258 0.324,0 0.515,0.196 0.515,0.582 h -0.32 c 0,-0.257 -0.066,-0.257 -0.195,-0.257 -0.192,0 -0.192,0.191 -0.192,0.515 v 0.063 c 0,0.386 0,0.515 0.192,0.515 0.129,0 0.195,-0.129 0.195,-0.258 v -0.062 z m 0.453,-1.031 h 0.903 v 0.258 h -0.453 v 0.324 l 0.453,-0.066 0.062,0.324 h -0.449 v 0.32 h 0.516 v 0.325 h -0.84 c -0.063,0.128 -0.192,-1.485 -0.192,-1.485 z m 2.387,1.418 -0.258,-1.547 0.321,-0.062 0.195,1.289 0.449,-0.067 0.067,0.258 c 0.062,0 -0.774,0.129 -0.774,0.129 z m 1.352,-1.805 0.195,0.969 c 0.063,0.258 0.063,0.321 0.258,0.258 0.129,0 0.129,-0.129 0.062,-0.324 l -0.257,-0.965 0.324,-0.066 0.191,0.902 v 0.129 c 0.067,0.195 0.067,0.258 0,0.387 -0.062,0.195 -0.191,0.257 -0.387,0.257 -0.257,0.067 -0.32,0 -0.449,-0.129 -0.129,-0.128 -0.129,-0.257 -0.195,-0.578 l -0.192,-0.84 z m 1.031,-0.257 0.516,-0.192 0.324,0.645 0.191,0.32 c -0.062,-0.258 -0.062,-0.32 -0.062,-0.387 l -0.067,-0.644 0.516,-0.192 0.453,1.547 -0.324,0.129 -0.32,-1.16 0.128,1.289 -0.257,0.063 -0.582,-1.161 0.386,1.227 -0.32,0.129 c -0.066,-0.066 -0.582,-1.613 -0.582,-1.613 z m 1.742,-0.578 0.836,-0.258 0.129,0.258 -0.449,0.191 0.129,0.258 0.449,-0.192 0.129,0.258 -0.387,0.192 0.129,0.324 0.453,-0.258 0.129,0.258 -0.84,0.32 c -0.062,0.129 -0.707,-1.351 -0.707,-1.351 z m 1.223,-0.454 0.324,-0.191 0.773,0.707 c -0.195,-0.258 -0.324,-0.449 -0.386,-0.644 l -0.129,-0.258 0.258,-0.192 0.836,1.352 -0.321,0.195 -0.84,-0.711 c 0.196,0.258 0.258,0.387 0.387,0.645 l 0.195,0.258 -0.257,0.195 z m -8.961,-7.929 c -0.516,-0.578 -1.031,-0.774 -1.481,-0.774 l -0.515,0.067 c -0.582,0.062 -1.356,0.129 -1.676,0.129 h -0.773 V 38.41 h -0.387 v 7.348 h 1.16 c 0.32,0 1.094,-0.063 1.609,-0.129 l 0.582,-0.063 c 0.45,0.129 0.965,0.063 1.481,0.321 z m 4.773,-7.41 v 6.894 h -0.773 c -0.324,0 -1.098,-0.062 -1.68,-0.129 l -0.515,-0.062 c -0.516,0 -1.032,0.191 -1.481,0.773 v 0.063 c 0.516,-0.387 1.031,-0.258 1.481,-0.258 l 0.582,0.066 c 0.515,0.063 1.289,0.129 1.613,0.129 H 489 v -7.414 c -0.129,-0.062 -0.195,-0.062 -0.387,-0.062 z" /><path
         id="path146"
         style="fill:#ffffff;fill-opacity:1;fill-rule:nonzero;stroke:none"
         d="m 482.359,44.793 -0.582,0.062 c -0.515,0.067 -1.289,0.129 -1.609,0.129 h -0.258 v -7.152 c 0.449,0.191 1.031,0.32 1.996,0.32 1.614,0 1.934,0.516 1.934,0.516 l 0.066,0.066 v 6.446 c -0.582,-0.387 -1.097,-0.387 -1.547,-0.387 z m 5.801,0.129 h -0.258 c -0.32,0 -1.093,-0.067 -1.613,-0.129 l -0.578,-0.066 c -0.453,0 -0.969,0.066 -1.484,0.515 v -6.445 l 0.066,-0.063 c 0,0 0.258,-0.515 1.934,-0.515 1.031,0 1.546,-0.196 2,-0.324 -0.067,0.515 -0.067,6.64 -0.067,7.027 z" /><path
         id="path148"
         style="fill:#231f20;fill-opacity:1;fill-rule:nonzero;stroke:none"
         d="m 481.973,40.215 c -0.711,0 -1.289,-0.063 -1.676,-0.129 v 0.258 c 0.449,0.129 0.965,0.129 1.676,0.129 h 0.386 c 0.387,0 0.707,0.066 0.903,0.195 V 40.41 c -0.258,-0.066 -0.516,-0.129 -0.903,-0.195 z m 0,0.84 c -0.774,0 -1.356,0 -1.743,-0.067 v 0.258 c 0.454,0.067 1.227,0.067 1.743,0.067 h 0.386 c 0.387,0 0.707,0.062 0.903,0.191 v -0.258 c -0.258,-0.129 -0.516,-0.129 -0.903,-0.191 z m 0.062,0.965 c -0.578,0 -1.351,0.066 -1.738,0 v 0.257 c 0.449,0.067 1.16,0 1.738,0 h 0.324 c 0.258,0 0.645,0.067 0.965,0.196 v -0.258 c -0.32,-0.129 -0.644,-0.195 -0.965,-0.195 z m 0,0.902 h -0.191 c -0.516,0.066 -1.098,0.066 -1.547,0.066 v 0.258 c 0.387,0 1.094,-0.066 1.547,-0.066 h 0.449 c 0.258,0 0.645,0.066 0.969,0.195 v -0.258 c -0.324,-0.195 -0.711,-0.195 -0.969,-0.195 z m 0.324,0.84 -0.515,0.062 c -0.453,0.067 -1.098,0.129 -1.485,0.129 v 0.258 c 0.387,0 1.032,-0.063 1.485,-0.129 l 0.515,-0.062 c 0.258,0 0.645,0 0.965,0.191 v -0.258 c -0.386,-0.129 -0.707,-0.191 -0.965,-0.191 z m -0.453,-4.383 c -0.578,0 -0.965,-0.066 -1.289,-0.129 v -0.582 c -0.129,0 -0.258,-0.063 -0.387,-0.129 v 0.84 c 0.325,0.129 0.84,0.258 1.676,0.258 0.582,0 1.032,0.062 1.356,0.191 V 39.57 c -0.324,-0.191 -0.774,-0.191 -1.356,-0.191 z m 4.192,0.191 c 0.84,0 1.289,-0.129 1.675,-0.257 v -0.192 c -0.32,0.129 -0.835,0.258 -1.675,0.258 -0.325,0 -0.711,0 -0.969,0.062 v -0.644 c -0.063,0 -0.191,0.066 -0.258,0.066 -0.062,0.063 -0.129,0.063 -0.191,0.063 v 0.84 c 0.386,-0.129 0.836,-0.196 1.418,-0.196 z m -0.067,0.711 h -0.386 c -0.321,0 -0.645,0.063 -0.903,0.129 v 0.258 c 0.258,-0.066 0.516,-0.129 0.903,-0.195 h 0.386 c 0.711,0 1.293,-0.063 1.68,-0.129 v -0.258 c -0.453,0.129 -0.969,0.195 -1.68,0.195 z m 0,0.836 h -0.386 c -0.387,0 -0.707,0.067 -0.903,0.196 v 0.257 c 0.258,-0.129 0.516,-0.195 0.903,-0.195 h 0.324 c 0.515,0 1.226,0 1.742,-0.062 v -0.258 c -0.387,0.062 -0.969,0.062 -1.68,0.062 z m -0.062,0.903 h -0.324 c -0.258,0 -0.645,0.066 -0.903,0.195 v 0.258 c 0.258,-0.129 0.645,-0.196 0.903,-0.196 h 0.324 c 0.578,0 1.289,0.067 1.742,0 V 42.02 c -0.453,0.066 -1.098,0.066 -1.742,0 z m 0.191,0.968 h -0.449 c -0.258,0 -0.645,0.063 -0.969,0.192 v 0.258 c 0.324,-0.129 0.711,-0.192 0.969,-0.192 h 0.449 c 0.52,0.063 1.164,0.063 1.551,0.063 v -0.258 c -0.387,0 -1.031,-0.063 -1.551,-0.063 z m 0.067,0.903 -0.516,-0.067 c -0.258,0 -0.645,0 -0.969,0.196 v 0.257 c 0.324,-0.195 0.711,-0.195 0.969,-0.195 l 0.516,0.066 c 0.453,0.063 1.097,0.129 1.484,0.129 V 44.02 c -0.387,0 -1.031,-0.067 -1.484,-0.129 z" /><path
         id="path150"
         style="fill:#ffffff;fill-opacity:1;fill-rule:nonzero;stroke:none"
         d="m 482.359,46.082 -0.515,0.063 c -0.582,0.066 -1.356,0.128 -1.676,0.128 h -1.613 v -6.96 h -0.387 v 7.414 h 2 c 0.32,0 1.094,-0.067 1.609,-0.129 l 0.582,-0.067 c 0.321,0 0.774,-0.129 1.223,0 v -0.062 c -0.449,-0.258 -0.836,-0.387 -1.223,-0.387 z m 7.09,-6.769 v 7.027 h -1.609 c -0.324,0 -1.098,-0.067 -1.68,-0.129 l -0.515,-0.066 c -0.387,0 -0.836,0.128 -1.29,0.453 0.387,-0.196 0.84,-0.067 1.29,-0.067 l 0.582,0.067 c 0.515,0.062 1.289,0.129 1.613,0.129 h 1.996 v -7.414 z m -3.804,-5.028 h 0.773 l 0.324,-0.515 0.258,0.515 h 0.773 l -0.386,0.645 0.386,0.644 H 487 l -0.258,0.516 -0.324,-0.516 h -0.773 l 0.386,-0.644 z m 2.644,-4.125 0.453,0.578 h 0.836 l -0.258,0.645 0.516,0.582 -0.773,0.258 -0.129,0.773 -0.645,-0.324 -0.707,0.324 -0.129,-0.711 -0.711,-0.258 0.453,-0.578 L 487,30.738 h 0.773 c 0,-0.062 0.516,-0.578 0.516,-0.578 z m -4.254,-1.933 0.516,0.578 h 0.836 l -0.258,0.711 0.516,0.578 -0.774,0.258 -0.129,0.773 -0.707,-0.387 -0.711,0.325 -0.129,-0.774 -0.707,-0.195 0.516,-0.578 -0.195,-0.711 h 0.773 z m 0.063,4.832 0.324,0.515 0.644,0.196 -0.386,0.449 v 0.644 l -0.582,-0.191 -0.645,0.191 v -0.644 l -0.387,-0.449 0.645,-0.196 z m -1.739,0.711 -0.582,-0.516 v -0.84 h -0.836 l -0.582,-0.578 -0.644,0.578 h -0.836 v 0.84 l -0.582,0.516 0.582,0.578 v 0.84 h 0.836 l 0.644,0.578 0.582,-0.578 h 0.836 v -0.84 z" /><path
         id="path152"
         style="fill:#ed1c2e;fill-opacity:1;fill-rule:nonzero;stroke:none"
         d="m 490.738,44.793 v -3.094 h 0.196 v -0.902 h -0.196 v -1.098 h -0.449 v 7.414 h -5.609 c -0.067,0 -0.067,0.063 -0.129,0.063 -0.067,0.324 -0.324,0.644 -0.711,0.644 -0.32,0 -0.707,-0.257 -0.707,-0.707 h -5.61 v -7.347 h -0.386 v 1.093 h -0.192 v 0.903 h 0.192 v 3.031 h -0.192 v 0.902 h 0.192 V 47.5 h 5.672 c 0.195,0.449 0.644,0.773 1.16,0.773 0.515,0 0.902,-0.257 1.16,-0.773 h 5.676 v -1.871 h 0.191 v -0.902 c 0,0.066 -0.258,0.066 -0.258,0.066 z" /><path
         id="path154"
         style="fill:#b38808;fill-opacity:1;fill-rule:nonzero;stroke:none"
         d="m 473.848,37.059 c 0.066,7.41 3.484,12.632 10.121,15.535 V 48.34 c -0.516,0 -0.903,-0.262 -1.16,-0.777 h -5.672 v -1.868 h -0.192 v -0.902 h 0.192 v -3.031 h -0.192 v -0.903 h 0.192 v -1.093 h 0.386 v -0.903 h 0.84 v -0.84 h 0.836 v -0.835 l 0.387,0.191 c 0.516,0.195 0.969,0.324 2.062,0.324 1.29,0 1.872,0.258 2.129,0.516 v -1.227 h -9.929 z" /></g></g></svg>