<?xml version="1.0" encoding="utf-8"?>
<!-- Generator: Adobe Illustrator 27.9.0, SVG Export Plug-In . SVG Version: 6.00 Build 0)  -->
<svg version="1.1" id="Layer_1" xmlns="http://www.w3.org/2000/svg" xmlns:xlink="http://www.w3.org/1999/xlink" x="0px" y="0px"
	 viewBox="0 0 595.28 841.89" style="enable-background:new 0 0 595.28 841.89;" xml:space="preserve">
<style type="text/css">
	.st0{fill:#B7D539;}
	.st1{fill:#00808C;}
	.st2{fill:#414042;}
</style>
<path class="st0" d="M223.63,453.49l-12.65-11.14c-3.85-3.39-5.14-8.86-3.23-13.61l3.56-9.17l12.65,11.14
	c3.85,3.39,5.14,8.86,3.23,13.61L223.63,453.49z M212.9,426.06l-1.58,4.08c-1.32,3.27-0.43,7.01,2.2,9.33l8.53,7.52l1.58-4.08
	c1.32-3.27,0.43-7.01-2.2-9.33L212.9,426.06z"/>
<path class="st0" d="M247.3,407.25l-3.65-13.42c-0.78-3.77,0.95-7.58,4.3-9.49l10.47-6.17l3.74,11.63c1.21,3.66-0.06,7.64-3.16,9.92
	l-0.1,0.07L247.3,407.25z M247.33,393.01l2.26,8.27l7.21-4.64c1.74-1.31,2.45-3.58,1.76-5.67l0-0.02l-2.29-7.14l-6.43,3.78
	C247.91,388.71,246.91,390.87,247.33,393.01z"/>
<path class="st0" d="M259.05,436.75c-0.04,0-0.09,0-0.13,0l-16.85-0.18l3.5-9.22c1.75-4.79,6.34-7.99,11.5-7.93l16.85,0.18
	l-3.5,9.22C268.68,433.56,264.12,436.75,259.05,436.75z M247.59,432.79l11.37,0.12c3.48-0.01,6.67-2.15,7.87-5.44l1.56-4.12
	l-11.37-0.12c-3.49-0.07-6.67,2.15-7.87,5.44L247.59,432.79z"/>
<path class="st0" d="M236.01,421.26l-12.65-11.14c-3.85-3.39-5.14-8.86-3.23-13.61l3.56-9.17l12.65,11.14
	c3.85,3.39,5.14,8.86,3.23,13.61L236.01,421.26z M225.89,407.25l8.53,7.52l1.58-4.08c1.32-3.27,0.43-7.01-2.2-9.33l-8.53-7.52
	l-1.59,4.08C222.37,401.19,223.26,404.93,225.89,407.25L225.89,407.25z"/>
<path class="st1" d="M239.87,432.22L239.87,432.22L239.87,432.22l-17.79-16.12c0.2-0.65,0.27-1.34,0.16-2.06
	c-0.4-2.49-2.74-4.18-5.23-3.78c-2.49,0.4-4.18,2.74-3.78,5.23c0.4,2.49,2.74,4.18,5.23,3.78c0.23-0.04,0.45-0.11,0.66-0.18
	l15.93,14.44l-10.71,27.9h4.32L239.87,432.22z"/>
<path class="st1" d="M275.54,408.94c-1.58-1.96-4.46-2.27-6.42-0.69c-0.48,0.39-0.86,0.86-1.14,1.37l-23.78,0.08l-1.04,2.72l-0.01,0
	l-4.16,10.85l3.18,2.97l4.73-12.33l21.09-0.07c0.14,0.28,0.23,0.58,0.43,0.84c1.58,1.96,4.46,2.27,6.42,0.69
	C276.82,413.77,277.13,410.9,275.54,408.94"/>
<path class="st0" d="M251.07,457.68c-0.04,0-0.09,0-0.13,0l-16.85-0.18l3.5-9.22c1.75-4.79,6.37-8.02,11.5-7.93l16.85,0.19
	l-3.5,9.22C260.7,454.5,256.14,457.68,251.07,457.68z M239.6,453.73l11.37,0.12c0.03,0,0.06,0,0.09,0c3.47,0,6.59-2.18,7.78-5.44
	l1.56-4.12l-11.37-0.12c-0.03,0-0.06,0-0.09,0c-3.47,0-6.59,2.18-7.78,5.44L239.6,453.73z"/>
<path class="st2" d="M381.07,463.99c0.21,0.06,0.6,0.1,0.82,0.1c1.03-0.01,1.81-0.41,2.27-1.53l3.51-8.48h-1.43l-2.23,5.59
	l-2.23-5.59h-1.41l2.93,7.2l-0.41,0.94c-0.22,0.53-0.55,0.69-1.03,0.69c-0.18,0-0.43-0.04-0.59-0.12L381.07,463.99z M377.77,461.2
	v-4.96c0.31-0.53,1.21-1.03,1.87-1.03c0.18,0,0.33,0.02,0.46,0.04v-1.34c-0.94,0-1.79,0.54-2.33,1.25v-1.09h-1.33v7.12H377.77z
	 M373.89,461.37c0.69,0,1.11-0.19,1.39-0.46l-0.34-1c-0.13,0.15-0.41,0.28-0.72,0.28c-0.46,0-0.69-0.37-0.69-0.87v-4.09h1.45v-1.16
	h-1.45v-1.95h-1.33v1.95h-1.18v1.16h1.18v4.38C372.19,460.74,372.77,461.37,373.89,461.37 M364.41,460.27
	c0.72,0.74,1.77,1.1,2.96,1.1c1.87,0,2.88-0.96,2.88-2.18c0-1.64-1.47-1.98-2.71-2.26c-0.89-0.21-1.65-0.41-1.65-1.03
	c0-0.57,0.56-0.93,1.46-0.93s1.7,0.37,2.11,0.87l0.59-0.93c-0.6-0.57-1.49-1.02-2.71-1.02c-1.74,0-2.71,0.97-2.71,2.11
	c0,1.53,1.41,1.86,2.62,2.14c0.92,0.21,1.73,0.44,1.73,1.15c0,0.6-0.53,1.02-1.54,1.02c-0.96,0-1.9-0.49-2.39-1.02L364.41,460.27z
	 M362.91,461.2v-7.12h-1.33v5.12c-0.4,0.53-1.15,1-1.98,1c-0.92,0-1.51-0.35-1.51-1.53v-4.59h-1.33v5.03c0,1.5,0.75,2.27,2.27,2.27
	c1.09,0,1.99-0.56,2.54-1.15v0.97H362.91z M353.33,459.16c-0.37,0.58-1.17,1.03-1.98,1.03c-1.33,0-2.15-1.08-2.15-2.55
	c0-1.49,0.83-2.57,2.15-2.57c0.81,0,1.61,0.47,1.98,1.05V459.16z M354.65,461.2v-9.84h-1.32v3.74c-0.58-0.77-1.42-1.21-2.33-1.21
	c-1.86,0-3.19,1.46-3.19,3.74c0,2.33,1.33,3.73,3.19,3.73c0.94,0,1.8-0.49,2.33-1.19v1.02H354.65z M346.14,461.2v-5
	c0-1.5-0.78-2.3-2.28-2.3c-1.11,0-2.05,0.6-2.52,1.18v-1h-1.32v7.12h1.32v-5.09c0.38-0.53,1.14-1.03,1.96-1.03
	c0.91,0,1.52,0.38,1.52,1.56v4.56H346.14z M337.84,451.36h-1.47v9.84h1.47V451.36z M325.01,460.27c0.72,0.74,1.77,1.1,2.96,1.1
	c1.87,0,2.88-0.96,2.88-2.18c0-1.64-1.47-1.98-2.71-2.26c-0.89-0.21-1.65-0.41-1.65-1.03c0-0.57,0.56-0.93,1.46-0.93
	c0.9,0,1.7,0.37,2.11,0.87l0.59-0.93c-0.6-0.57-1.49-1.02-2.71-1.02c-1.74,0-2.71,0.97-2.71,2.11c0,1.53,1.41,1.86,2.62,2.14
	c0.92,0.21,1.73,0.44,1.73,1.15c0,0.6-0.53,1.02-1.53,1.02c-0.96,0-1.9-0.49-2.39-1.02L325.01,460.27z M323.52,461.2v-5
	c0-1.5-0.78-2.3-2.29-2.3c-1.11,0-2.05,0.6-2.52,1.18v-1h-1.33v7.12h1.33v-5.09c0.38-0.53,1.14-1.03,1.96-1.03
	c0.92,0,1.52,0.38,1.52,1.56v4.56H323.52z M315.27,454.08h-1.33v7.12h1.33V454.08z M314.6,452.88c0.47,0,0.86-0.37,0.86-0.84
	c0-0.47-0.38-0.85-0.86-0.85c-0.46,0-0.85,0.38-0.85,0.85C313.74,452.51,314.14,452.88,314.6,452.88 M310.5,459.64
	c-0.4,0.53-1.09,0.81-1.83,0.81c-0.96,0-1.64-0.58-1.64-1.42c0-0.84,0.68-1.42,1.64-1.42c0.74,0,1.43,0.28,1.83,0.81V459.64z
	 M311.82,461.2v-4.81c0-1.82-1.31-2.49-2.86-2.49c-1.15,0-2.12,0.38-2.92,1.16l0.57,0.92c0.63-0.64,1.33-0.95,2.14-0.95
	c1.02,0,1.74,0.53,1.74,1.42v1.18c-0.55-0.63-1.37-0.94-2.33-0.94c-1.2,0-2.48,0.71-2.48,2.33c0,1.57,1.3,2.36,2.48,2.36
	c0.96,0,1.77-0.34,2.33-0.96v0.78H311.82z M302.44,461.2v-4.96c0.31-0.53,1.21-1.03,1.87-1.03c0.18,0,0.32,0.02,0.46,0.04v-1.34
	c-0.94,0-1.79,0.54-2.33,1.25v-1.09h-1.33v7.12H302.44z M290.19,456.29c0,3.07,2.29,5.1,5.1,5.1c1.67,0,3.02-0.69,3.97-1.74v-3.61
	h-4.63v1.3h3.16v1.77c-0.47,0.44-1.4,0.97-2.49,0.97c-2.05,0-3.59-1.59-3.59-3.79c0-2.21,1.54-3.78,3.59-3.78
	c1.15,0,2.14,0.58,2.7,1.33l1.19-0.69c-0.83-1.11-2.05-1.95-3.89-1.95C292.47,451.2,290.19,453.22,290.19,456.29"/>
<path class="st2" d="M378.4,443.56v-5c0-1.5-0.78-2.3-2.29-2.3c-1.11,0-2.05,0.6-2.52,1.18v-1h-1.33v7.12h1.33v-5.09
	c0.38-0.53,1.14-1.03,1.96-1.03c0.92,0,1.52,0.38,1.52,1.56v4.56H378.4z M368.82,442c-0.4,0.53-1.09,0.81-1.83,0.81
	c-0.96,0-1.64-0.58-1.64-1.42c0-0.84,0.68-1.42,1.64-1.42c0.74,0,1.43,0.28,1.83,0.81V442z M370.14,443.56v-4.81
	c0-1.82-1.31-2.49-2.86-2.49c-1.15,0-2.12,0.38-2.92,1.16l0.57,0.92c0.63-0.64,1.33-0.95,2.14-0.95c1.02,0,1.74,0.53,1.74,1.42v1.18
	c-0.55-0.63-1.37-0.94-2.33-0.94c-1.2,0-2.48,0.71-2.48,2.33c0,1.56,1.3,2.36,2.48,2.36c0.96,0,1.77-0.34,2.33-0.96v0.78H370.14z
	 M362.31,436.44h-1.33v7.12h1.33V436.44z M361.63,435.24c0.47,0,0.85-0.37,0.85-0.84c0-0.47-0.38-0.86-0.85-0.86
	c-0.46,0-0.85,0.38-0.85,0.86C360.78,434.87,361.18,435.24,361.63,435.24 M358.87,433.72h-1.33v9.84h1.33V433.72z M354.1,442
	c-0.4,0.53-1.09,0.81-1.83,0.81c-0.96,0-1.64-0.58-1.64-1.42c0-0.84,0.68-1.42,1.64-1.42c0.74,0,1.43,0.28,1.83,0.81V442z
	 M355.42,443.56v-4.81c0-1.82-1.31-2.49-2.86-2.49c-1.15,0-2.12,0.38-2.92,1.16l0.57,0.92c0.63-0.64,1.33-0.95,2.14-0.95
	c1.02,0,1.74,0.53,1.74,1.42v1.18c-0.55-0.63-1.37-0.94-2.33-0.94c-1.2,0-2.48,0.71-2.48,2.33c0,1.56,1.3,2.36,2.48,2.36
	c0.96,0,1.77-0.34,2.33-0.96v0.78H355.42z M346.04,443.56v-4.96c0.31-0.53,1.21-1.03,1.87-1.03c0.18,0,0.32,0.01,0.46,0.04v-1.34
	c-0.94,0-1.79,0.55-2.33,1.25v-1.09h-1.33v7.12H346.04z M342.16,443.73c0.69,0,1.11-0.19,1.39-0.46l-0.34-1
	c-0.13,0.15-0.41,0.28-0.72,0.28c-0.46,0-0.69-0.37-0.69-0.87v-4.09h1.45v-1.16h-1.45v-1.95h-1.32v1.95h-1.18v1.16h1.18v4.38
	C340.47,443.1,341.04,443.73,342.16,443.73 M332.68,442.63c0.72,0.74,1.77,1.1,2.96,1.1c1.87,0,2.88-0.96,2.88-2.18
	c0-1.64-1.47-1.98-2.71-2.26c-0.89-0.21-1.65-0.41-1.65-1.03c0-0.58,0.56-0.93,1.46-0.93s1.7,0.37,2.11,0.87l0.59-0.93
	c-0.6-0.58-1.49-1.02-2.71-1.02c-1.74,0-2.71,0.97-2.71,2.11c0,1.54,1.41,1.86,2.62,2.14c0.91,0.21,1.73,0.44,1.73,1.15
	c0,0.61-0.53,1.02-1.54,1.02c-0.96,0-1.9-0.49-2.39-1.02L332.68,442.63z M331.19,443.56v-7.12h-1.33v5.12c-0.4,0.53-1.15,1-1.98,1
	c-0.92,0-1.51-0.35-1.51-1.53v-4.59h-1.33v5.03c0,1.5,0.75,2.27,2.27,2.27c1.09,0,1.99-0.56,2.54-1.15v0.97H331.19z M321.23,440.21
	h-3.97l1.98-5.21L321.23,440.21z M324.08,443.56l-3.91-9.84h-1.84l-3.91,9.84h1.62l0.8-2.04h4.82l0.8,2.04H324.08z M306.47,437.35
	c1.5,0,2.14,1.18,2.17,2.13h-4.35C304.36,438.5,305.04,437.35,306.47,437.35 M302.9,439.99c0,2.24,1.56,3.75,3.69,3.75
	c1.15,0,2.15-0.37,2.86-1.06l-0.62-0.87c-0.53,0.55-1.36,0.84-2.11,0.84c-1.43,0-2.32-1-2.42-2.21h5.64v-0.32
	c0-2.18-1.33-3.85-3.46-3.85C304.39,436.26,302.9,437.92,302.9,439.99 M301.22,443.56v-5.03c0-1.5-0.77-2.27-2.29-2.27
	c-1.09,0-2.05,0.6-2.52,1.18v-3.71h-1.33v9.84h1.33v-5.09c0.38-0.53,1.14-1.03,1.96-1.03c0.92,0,1.52,0.35,1.52,1.53v4.59H301.22z
	 M292.53,443.73c0.69,0,1.11-0.19,1.39-0.46l-0.34-1c-0.13,0.15-0.41,0.28-0.72,0.28c-0.46,0-0.69-0.37-0.69-0.87v-4.09h1.45v-1.16
	h-1.45v-1.95h-1.32v1.95h-1.18v1.16h1.18v4.38C290.83,443.1,291.41,443.73,292.53,443.73"/>
<path class="st2" d="M367.35,425.92v-4.96c0.31-0.53,1.21-1.03,1.87-1.03c0.18,0,0.33,0.02,0.46,0.05v-1.34
	c-0.94,0-1.78,0.54-2.33,1.25v-1.09h-1.33v7.12H367.35z M360.75,424.92c-1.42,0-2.21-1.21-2.21-2.57c0-1.34,0.8-2.55,2.21-2.55
	c1.43,0,2.21,1.21,2.21,2.55C362.96,423.71,362.18,424.92,360.75,424.92 M360.75,426.09c2.23,0,3.6-1.68,3.6-3.75
	c0-2.05-1.37-3.73-3.6-3.73c-2.21,0-3.6,1.68-3.6,3.73C357.15,424.41,358.53,426.09,360.75,426.09 M356.32,419.96v-1.16h-1.44v-0.47
	c0-0.86,0.4-1.3,1.06-1.3c0.24,0,0.46,0.06,0.63,0.16l0.31-0.99c-0.31-0.18-0.71-0.27-1.17-0.27c-1.27,0-2.17,0.85-2.17,2.39v0.47
	h-1.18v1.16h1.18v5.96h1.33v-5.96H356.32z M341.9,424.99c0.72,0.74,1.77,1.1,2.96,1.1c1.87,0,2.88-0.96,2.88-2.18
	c0-1.64-1.47-1.98-2.71-2.26c-0.89-0.21-1.65-0.41-1.65-1.03c0-0.58,0.56-0.93,1.46-0.93s1.7,0.37,2.11,0.87l0.59-0.93
	c-0.6-0.57-1.49-1.02-2.71-1.02c-1.74,0-2.71,0.97-2.71,2.11c0,1.54,1.41,1.86,2.62,2.14c0.91,0.21,1.73,0.44,1.73,1.15
	c0,0.6-0.53,1.02-1.53,1.02c-0.96,0-1.9-0.49-2.39-1.02L341.9,424.99z M334.76,422.35c0,2.14,1.47,3.75,3.63,3.75
	c1.34,0,2.15-0.56,2.67-1.25l-0.89-0.81c-0.43,0.59-1,0.89-1.72,0.89c-1.4,0-2.3-1.09-2.3-2.57c0-1.48,0.9-2.55,2.3-2.55
	c0.72,0,1.3,0.28,1.72,0.88l0.89-0.81c-0.52-0.69-1.33-1.25-2.67-1.25C336.23,418.62,334.76,420.21,334.76,422.35 M333.09,418.8
	h-1.33v7.12h1.33V418.8z M332.41,417.6c0.47,0,0.86-0.37,0.86-0.84c0-0.47-0.38-0.85-0.86-0.85c-0.46,0-0.85,0.38-0.85,0.85
	C331.56,417.23,331.96,417.6,332.41,417.6 M329.21,426.09c0.69,0,1.11-0.19,1.39-0.46l-0.34-1c-0.13,0.15-0.41,0.28-0.72,0.28
	c-0.46,0-0.69-0.37-0.69-0.87v-4.09h1.45v-1.16h-1.45v-1.95h-1.33v1.95h-1.18v1.16h1.18v4.38
	C327.52,425.46,328.09,426.09,329.21,426.09 M319.57,428.71c0.21,0.06,0.6,0.1,0.83,0.1c1.03-0.02,1.81-0.41,2.27-1.53l3.51-8.48
	h-1.43l-2.23,5.59l-2.23-5.59h-1.42l2.94,7.2l-0.41,0.94c-0.22,0.53-0.55,0.69-1.03,0.69c-0.18,0-0.43-0.04-0.59-0.12L319.57,428.71
	z M317.81,416.08h-1.33v9.84h1.33V416.08z M313.03,424.36c-0.4,0.53-1.09,0.81-1.83,0.81c-0.96,0-1.64-0.58-1.64-1.42
	c0-0.84,0.68-1.42,1.64-1.42c0.74,0,1.43,0.28,1.83,0.81V424.36z M314.36,425.92v-4.81c0-1.82-1.31-2.49-2.86-2.49
	c-1.15,0-2.12,0.38-2.92,1.16l0.57,0.92c0.63-0.64,1.33-0.95,2.14-0.95c1.02,0,1.74,0.53,1.74,1.42v1.18
	c-0.55-0.63-1.37-0.94-2.33-0.94c-1.19,0-2.48,0.71-2.48,2.33c0,1.57,1.3,2.36,2.48,2.36c0.96,0,1.77-0.34,2.33-0.96v0.78H314.36z
	 M306.53,425.92v-5c0-1.5-0.78-2.3-2.29-2.3c-1.11,0-2.05,0.6-2.52,1.18v-1h-1.33v7.12h1.33v-5.09c0.38-0.53,1.14-1.03,1.96-1.03
	c0.92,0,1.52,0.38,1.52,1.56v4.56H306.53z M296.39,422.57h-3.97l1.98-5.21L296.39,422.57z M299.24,425.92l-3.91-9.84h-1.84
	l-3.91,9.84h1.62l0.8-2.04h4.82l0.8,2.04H299.24z"/>
<path class="st2" d="M387.83,378.26h-4.5v30.02h4.5V378.26z M349.89,393.29c0,9.36,6.98,15.57,15.57,15.57
	c5.08,0,9.23-2.11,12.1-5.31v-11.03h-14.13v3.96h9.63v5.4c-1.44,1.35-4.27,2.97-7.6,2.97c-6.26,0-10.93-4.86-10.93-11.57
	c0-6.75,4.68-11.52,10.93-11.52c3.51,0,6.52,1.75,8.23,4.05l3.65-2.11c-2.52-3.38-6.26-5.94-11.88-5.94
	C356.87,377.77,349.89,383.93,349.89,393.29 M340.49,398.06h-12.1l6.03-15.88L340.49,398.06z M349.17,408.28l-11.92-30.02h-5.62
	l-11.92,30.02h4.95l2.43-6.21h14.71l2.43,6.21H349.17z M310.52,398.06h-12.11l6.03-15.88L310.52,398.06z M319.21,408.28
	l-11.92-30.02h-5.62l-11.93,30.02h4.95l2.43-6.21h14.71l2.43,6.21H319.21z"/>
</svg>
