<?xml version="1.0" encoding="UTF-8" standalone="no"?>
<!-- Generator: Adobe Illustrator 27.9.0, SVG Export Plug-In . SVG Version: 6.00 Build 0)  -->

<svg
   version="1.1"
   id="Layer_1"
   x="0px"
   y="0px"
   viewBox="0 0 180.95284 86.33"
   xml:space="preserve"
   sodipodi:docname="aagi-logo.svg"
   width="180.95285"
   height="86.330002"
   inkscape:version="1.3.2 (091e20e, 2023-11-25)"
   xmlns:inkscape="http://www.inkscape.org/namespaces/inkscape"
   xmlns:sodipodi="http://sodipodi.sourceforge.net/DTD/sodipodi-0.dtd"
   xmlns="http://www.w3.org/2000/svg"
   xmlns:svg="http://www.w3.org/2000/svg"><defs
   id="defs11" /><sodipodi:namedview
   id="namedview11"
   pagecolor="#ffffff"
   bordercolor="#000000"
   borderopacity="0.25"
   inkscape:showpageshadow="2"
   inkscape:pageopacity="0.0"
   inkscape:pagecheckerboard="0"
   inkscape:deskcolor="#d1d1d1"
   inkscape:clip-to-page="true"
   inkscape:zoom="0.70710678"
   inkscape:cx="329.51176"
   inkscape:cy="352.84628"
   inkscape:window-width="2128"
   inkscape:window-height="1212"
   inkscape:window-x="1537"
   inkscape:window-y="716"
   inkscape:window-maximized="0"
   inkscape:current-layer="g11" />
<style
   type="text/css"
   id="style1">
	.st0{fill:#B7D539;}
	.st1{fill:#00808C;}
	.st2{fill:#414042;}
</style>










<g
   id="g11"
   transform="translate(-206.87715,-377.76)"><path
     class="st0"
     d="m 223.63,453.49 -12.65,-11.14 c -3.85,-3.39 -5.14,-8.86 -3.23,-13.61 l 3.56,-9.17 12.65,11.14 c 3.85,3.39 5.14,8.86 3.23,13.61 z m -10.73,-27.43 -1.58,4.08 c -1.32,3.27 -0.43,7.01 2.2,9.33 l 8.53,7.52 1.58,-4.08 c 1.32,-3.27 0.43,-7.01 -2.2,-9.33 z"
     id="path1" /><path
     class="st0"
     d="m 247.3,407.25 -3.65,-13.42 c -0.78,-3.77 0.95,-7.58 4.3,-9.49 l 10.47,-6.17 3.74,11.63 c 1.21,3.66 -0.06,7.64 -3.16,9.92 l -0.1,0.07 z m 0.03,-14.24 2.26,8.27 7.21,-4.64 c 1.74,-1.31 2.45,-3.58 1.76,-5.67 v -0.02 l -2.29,-7.14 -6.43,3.78 c -1.93,1.12 -2.93,3.28 -2.51,5.42 z"
     id="path2" /><path
     class="st0"
     d="m 259.05,436.75 c -0.04,0 -0.09,0 -0.13,0 l -16.85,-0.18 3.5,-9.22 c 1.75,-4.79 6.34,-7.99 11.5,-7.93 l 16.85,0.18 -3.5,9.22 c -1.74,4.74 -6.3,7.93 -11.37,7.93 z m -11.46,-3.96 11.37,0.12 c 3.48,-0.01 6.67,-2.15 7.87,-5.44 l 1.56,-4.12 -11.37,-0.12 c -3.49,-0.07 -6.67,2.15 -7.87,5.44 z"
     id="path3" /><path
     class="st0"
     d="m 236.01,421.26 -12.65,-11.14 c -3.85,-3.39 -5.14,-8.86 -3.23,-13.61 l 3.56,-9.17 12.65,11.14 c 3.85,3.39 5.14,8.86 3.23,13.61 z m -10.12,-14.01 8.53,7.52 1.58,-4.08 c 1.32,-3.27 0.43,-7.01 -2.2,-9.33 l -8.53,-7.52 -1.59,4.08 c -1.31,3.27 -0.42,7.01 2.21,9.33 z"
     id="path4" /><path
     class="st1"
     d="m 239.87,432.22 v 0 0 L 222.08,416.1 c 0.2,-0.65 0.27,-1.34 0.16,-2.06 -0.4,-2.49 -2.74,-4.18 -5.23,-3.78 -2.49,0.4 -4.18,2.74 -3.78,5.23 0.4,2.49 2.74,4.18 5.23,3.78 0.23,-0.04 0.45,-0.11 0.66,-0.18 l 15.93,14.44 -10.71,27.9 h 4.32 z"
     id="path5" /><path
     class="st1"
     d="m 275.54,408.94 c -1.58,-1.96 -4.46,-2.27 -6.42,-0.69 -0.48,0.39 -0.86,0.86 -1.14,1.37 l -23.78,0.08 -1.04,2.72 h -0.01 l -4.16,10.85 3.18,2.97 4.73,-12.33 21.09,-0.07 c 0.14,0.28 0.23,0.58 0.43,0.84 1.58,1.96 4.46,2.27 6.42,0.69 1.98,-1.6 2.29,-4.47 0.7,-6.43"
     id="path6" /><path
     class="st0"
     d="m 251.07,457.68 c -0.04,0 -0.09,0 -0.13,0 l -16.85,-0.18 3.5,-9.22 c 1.75,-4.79 6.37,-8.02 11.5,-7.93 l 16.85,0.19 -3.5,9.22 c -1.74,4.74 -6.3,7.92 -11.37,7.92 z m -11.47,-3.95 11.37,0.12 c 0.03,0 0.06,0 0.09,0 3.47,0 6.59,-2.18 7.78,-5.44 l 1.56,-4.12 -11.37,-0.12 c -0.03,0 -0.06,0 -0.09,0 -3.47,0 -6.59,2.18 -7.78,5.44 z"
     id="path7" /><path
     class="st2"
     d="m 381.07,463.99 c 0.21,0.06 0.6,0.1 0.82,0.1 1.03,-0.01 1.81,-0.41 2.27,-1.53 l 3.51,-8.48 h -1.43 l -2.23,5.59 -2.23,-5.59 h -1.41 l 2.93,7.2 -0.41,0.94 c -0.22,0.53 -0.55,0.69 -1.03,0.69 -0.18,0 -0.43,-0.04 -0.59,-0.12 z m -3.3,-2.79 v -4.96 c 0.31,-0.53 1.21,-1.03 1.87,-1.03 0.18,0 0.33,0.02 0.46,0.04 v -1.34 c -0.94,0 -1.79,0.54 -2.33,1.25 v -1.09 h -1.33 v 7.12 h 1.33 z m -3.88,0.17 c 0.69,0 1.11,-0.19 1.39,-0.46 l -0.34,-1 c -0.13,0.15 -0.41,0.28 -0.72,0.28 -0.46,0 -0.69,-0.37 -0.69,-0.87 v -4.09 h 1.45 v -1.16 h -1.45 v -1.95 h -1.33 v 1.95 h -1.18 v 1.16 h 1.18 v 4.38 c -0.01,1.13 0.57,1.76 1.69,1.76 m -9.48,-1.1 c 0.72,0.74 1.77,1.1 2.96,1.1 1.87,0 2.88,-0.96 2.88,-2.18 0,-1.64 -1.47,-1.98 -2.71,-2.26 -0.89,-0.21 -1.65,-0.41 -1.65,-1.03 0,-0.57 0.56,-0.93 1.46,-0.93 0.9,0 1.7,0.37 2.11,0.87 l 0.59,-0.93 c -0.6,-0.57 -1.49,-1.02 -2.71,-1.02 -1.74,0 -2.71,0.97 -2.71,2.11 0,1.53 1.41,1.86 2.62,2.14 0.92,0.21 1.73,0.44 1.73,1.15 0,0.6 -0.53,1.02 -1.54,1.02 -0.96,0 -1.9,-0.49 -2.39,-1.02 z m -1.5,0.93 v -7.12 h -1.33 v 5.12 c -0.4,0.53 -1.15,1 -1.98,1 -0.92,0 -1.51,-0.35 -1.51,-1.53 v -4.59 h -1.33 v 5.03 c 0,1.5 0.75,2.27 2.27,2.27 1.09,0 1.99,-0.56 2.54,-1.15 v 0.97 z m -9.58,-2.04 c -0.37,0.58 -1.17,1.03 -1.98,1.03 -1.33,0 -2.15,-1.08 -2.15,-2.55 0,-1.49 0.83,-2.57 2.15,-2.57 0.81,0 1.61,0.47 1.98,1.05 z m 1.32,2.04 v -9.84 h -1.32 v 3.74 c -0.58,-0.77 -1.42,-1.21 -2.33,-1.21 -1.86,0 -3.19,1.46 -3.19,3.74 0,2.33 1.33,3.73 3.19,3.73 0.94,0 1.8,-0.49 2.33,-1.19 v 1.02 h 1.32 z m -8.51,0 v -5 c 0,-1.5 -0.78,-2.3 -2.28,-2.3 -1.11,0 -2.05,0.6 -2.52,1.18 v -1 h -1.32 v 7.12 h 1.32 v -5.09 c 0.38,-0.53 1.14,-1.03 1.96,-1.03 0.91,0 1.52,0.38 1.52,1.56 v 4.56 z m -8.3,-9.84 h -1.47 v 9.84 h 1.47 z m -12.83,8.91 c 0.72,0.74 1.77,1.1 2.96,1.1 1.87,0 2.88,-0.96 2.88,-2.18 0,-1.64 -1.47,-1.98 -2.71,-2.26 -0.89,-0.21 -1.65,-0.41 -1.65,-1.03 0,-0.57 0.56,-0.93 1.46,-0.93 0.9,0 1.7,0.37 2.11,0.87 l 0.59,-0.93 c -0.6,-0.57 -1.49,-1.02 -2.71,-1.02 -1.74,0 -2.71,0.97 -2.71,2.11 0,1.53 1.41,1.86 2.62,2.14 0.92,0.21 1.73,0.44 1.73,1.15 0,0.6 -0.53,1.02 -1.53,1.02 -0.96,0 -1.9,-0.49 -2.39,-1.02 z m -1.49,0.93 v -5 c 0,-1.5 -0.78,-2.3 -2.29,-2.3 -1.11,0 -2.05,0.6 -2.52,1.18 v -1 h -1.33 v 7.12 h 1.33 v -5.09 c 0.38,-0.53 1.14,-1.03 1.96,-1.03 0.92,0 1.52,0.38 1.52,1.56 v 4.56 z m -8.25,-7.12 h -1.33 v 7.12 h 1.33 z m -0.67,-1.2 c 0.47,0 0.86,-0.37 0.86,-0.84 0,-0.47 -0.38,-0.85 -0.86,-0.85 -0.46,0 -0.85,0.38 -0.85,0.85 -0.01,0.47 0.39,0.84 0.85,0.84 m -4.1,6.76 c -0.4,0.53 -1.09,0.81 -1.83,0.81 -0.96,0 -1.64,-0.58 -1.64,-1.42 0,-0.84 0.68,-1.42 1.64,-1.42 0.74,0 1.43,0.28 1.83,0.81 z m 1.32,1.56 v -4.81 c 0,-1.82 -1.31,-2.49 -2.86,-2.49 -1.15,0 -2.12,0.38 -2.92,1.16 l 0.57,0.92 c 0.63,-0.64 1.33,-0.95 2.14,-0.95 1.02,0 1.74,0.53 1.74,1.42 v 1.18 c -0.55,-0.63 -1.37,-0.94 -2.33,-0.94 -1.2,0 -2.48,0.71 -2.48,2.33 0,1.57 1.3,2.36 2.48,2.36 0.96,0 1.77,-0.34 2.33,-0.96 v 0.78 z m -9.38,0 v -4.96 c 0.31,-0.53 1.21,-1.03 1.87,-1.03 0.18,0 0.32,0.02 0.46,0.04 v -1.34 c -0.94,0 -1.79,0.54 -2.33,1.25 v -1.09 h -1.33 v 7.12 h 1.33 z m -12.25,-4.91 c 0,3.07 2.29,5.1 5.1,5.1 1.67,0 3.02,-0.69 3.97,-1.74 v -3.61 h -4.63 v 1.3 h 3.16 v 1.77 c -0.47,0.44 -1.4,0.97 -2.49,0.97 -2.05,0 -3.59,-1.59 -3.59,-3.79 0,-2.21 1.54,-3.78 3.59,-3.78 1.15,0 2.14,0.58 2.7,1.33 l 1.19,-0.69 c -0.83,-1.11 -2.05,-1.95 -3.89,-1.95 -2.83,0 -5.11,2.02 -5.11,5.09"
     id="path8" /><path
     class="st2"
     d="m 378.4,443.56 v -5 c 0,-1.5 -0.78,-2.3 -2.29,-2.3 -1.11,0 -2.05,0.6 -2.52,1.18 v -1 h -1.33 v 7.12 h 1.33 v -5.09 c 0.38,-0.53 1.14,-1.03 1.96,-1.03 0.92,0 1.52,0.38 1.52,1.56 v 4.56 z M 368.82,442 c -0.4,0.53 -1.09,0.81 -1.83,0.81 -0.96,0 -1.64,-0.58 -1.64,-1.42 0,-0.84 0.68,-1.42 1.64,-1.42 0.74,0 1.43,0.28 1.83,0.81 z m 1.32,1.56 v -4.81 c 0,-1.82 -1.31,-2.49 -2.86,-2.49 -1.15,0 -2.12,0.38 -2.92,1.16 l 0.57,0.92 c 0.63,-0.64 1.33,-0.95 2.14,-0.95 1.02,0 1.74,0.53 1.74,1.42 v 1.18 c -0.55,-0.63 -1.37,-0.94 -2.33,-0.94 -1.2,0 -2.48,0.71 -2.48,2.33 0,1.56 1.3,2.36 2.48,2.36 0.96,0 1.77,-0.34 2.33,-0.96 v 0.78 z m -7.83,-7.12 h -1.33 v 7.12 h 1.33 z m -0.68,-1.2 c 0.47,0 0.85,-0.37 0.85,-0.84 0,-0.47 -0.38,-0.86 -0.85,-0.86 -0.46,0 -0.85,0.38 -0.85,0.86 0,0.47 0.4,0.84 0.85,0.84 m -2.76,-1.52 h -1.33 v 9.84 h 1.33 z M 354.1,442 c -0.4,0.53 -1.09,0.81 -1.83,0.81 -0.96,0 -1.64,-0.58 -1.64,-1.42 0,-0.84 0.68,-1.42 1.64,-1.42 0.74,0 1.43,0.28 1.83,0.81 z m 1.32,1.56 v -4.81 c 0,-1.82 -1.31,-2.49 -2.86,-2.49 -1.15,0 -2.12,0.38 -2.92,1.16 l 0.57,0.92 c 0.63,-0.64 1.33,-0.95 2.14,-0.95 1.02,0 1.74,0.53 1.74,1.42 v 1.18 c -0.55,-0.63 -1.37,-0.94 -2.33,-0.94 -1.2,0 -2.48,0.71 -2.48,2.33 0,1.56 1.3,2.36 2.48,2.36 0.96,0 1.77,-0.34 2.33,-0.96 v 0.78 z m -9.38,0 v -4.96 c 0.31,-0.53 1.21,-1.03 1.87,-1.03 0.18,0 0.32,0.01 0.46,0.04 v -1.34 c -0.94,0 -1.79,0.55 -2.33,1.25 v -1.09 h -1.33 v 7.12 h 1.33 z m -3.88,0.17 c 0.69,0 1.11,-0.19 1.39,-0.46 l -0.34,-1 c -0.13,0.15 -0.41,0.28 -0.72,0.28 -0.46,0 -0.69,-0.37 -0.69,-0.87 v -4.09 h 1.45 v -1.16 h -1.45 v -1.95 h -1.32 v 1.95 h -1.18 v 1.16 h 1.18 v 4.38 c -0.01,1.13 0.56,1.76 1.68,1.76 m -9.48,-1.1 c 0.72,0.74 1.77,1.1 2.96,1.1 1.87,0 2.88,-0.96 2.88,-2.18 0,-1.64 -1.47,-1.98 -2.71,-2.26 -0.89,-0.21 -1.65,-0.41 -1.65,-1.03 0,-0.58 0.56,-0.93 1.46,-0.93 0.9,0 1.7,0.37 2.11,0.87 l 0.59,-0.93 c -0.6,-0.58 -1.49,-1.02 -2.71,-1.02 -1.74,0 -2.71,0.97 -2.71,2.11 0,1.54 1.41,1.86 2.62,2.14 0.91,0.21 1.73,0.44 1.73,1.15 0,0.61 -0.53,1.02 -1.54,1.02 -0.96,0 -1.9,-0.49 -2.39,-1.02 z m -1.49,0.93 v -7.12 h -1.33 v 5.12 c -0.4,0.53 -1.15,1 -1.98,1 -0.92,0 -1.51,-0.35 -1.51,-1.53 v -4.59 h -1.33 v 5.03 c 0,1.5 0.75,2.27 2.27,2.27 1.09,0 1.99,-0.56 2.54,-1.15 v 0.97 z m -9.96,-3.35 h -3.97 l 1.98,-5.21 z m 2.85,3.35 -3.91,-9.84 h -1.84 l -3.91,9.84 h 1.62 l 0.8,-2.04 h 4.82 l 0.8,2.04 z m -17.61,-6.21 c 1.5,0 2.14,1.18 2.17,2.13 h -4.35 c 0.07,-0.98 0.75,-2.13 2.18,-2.13 m -3.57,2.64 c 0,2.24 1.56,3.75 3.69,3.75 1.15,0 2.15,-0.37 2.86,-1.06 l -0.62,-0.87 c -0.53,0.55 -1.36,0.84 -2.11,0.84 -1.43,0 -2.32,-1 -2.42,-2.21 h 5.64 v -0.32 c 0,-2.18 -1.33,-3.85 -3.46,-3.85 -2.09,-0.01 -3.58,1.65 -3.58,3.72 m -1.68,3.57 v -5.03 c 0,-1.5 -0.77,-2.27 -2.29,-2.27 -1.09,0 -2.05,0.6 -2.52,1.18 v -3.71 h -1.33 v 9.84 h 1.33 v -5.09 c 0.38,-0.53 1.14,-1.03 1.96,-1.03 0.92,0 1.52,0.35 1.52,1.53 v 4.59 h 1.33 z m -8.69,0.17 c 0.69,0 1.11,-0.19 1.39,-0.46 l -0.34,-1 c -0.13,0.15 -0.41,0.28 -0.72,0.28 -0.46,0 -0.69,-0.37 -0.69,-0.87 v -4.09 h 1.45 v -1.16 h -1.45 v -1.95 h -1.32 v 1.95 h -1.18 v 1.16 h 1.18 v 4.38 c -0.02,1.13 0.56,1.76 1.68,1.76"
     id="path9" /><path
     class="st2"
     d="m 367.35,425.92 v -4.96 c 0.31,-0.53 1.21,-1.03 1.87,-1.03 0.18,0 0.33,0.02 0.46,0.05 v -1.34 c -0.94,0 -1.78,0.54 -2.33,1.25 v -1.09 h -1.33 v 7.12 z m -6.6,-1 c -1.42,0 -2.21,-1.21 -2.21,-2.57 0,-1.34 0.8,-2.55 2.21,-2.55 1.43,0 2.21,1.21 2.21,2.55 0,1.36 -0.78,2.57 -2.21,2.57 m 0,1.17 c 2.23,0 3.6,-1.68 3.6,-3.75 0,-2.05 -1.37,-3.73 -3.6,-3.73 -2.21,0 -3.6,1.68 -3.6,3.73 0,2.07 1.38,3.75 3.6,3.75 m -4.43,-6.13 v -1.16 h -1.44 v -0.47 c 0,-0.86 0.4,-1.3 1.06,-1.3 0.24,0 0.46,0.06 0.63,0.16 l 0.31,-0.99 c -0.31,-0.18 -0.71,-0.27 -1.17,-0.27 -1.27,0 -2.17,0.85 -2.17,2.39 v 0.47 h -1.18 v 1.16 h 1.18 v 5.96 h 1.33 v -5.96 h 1.45 z m -14.42,5.03 c 0.72,0.74 1.77,1.1 2.96,1.1 1.87,0 2.88,-0.96 2.88,-2.18 0,-1.64 -1.47,-1.98 -2.71,-2.26 -0.89,-0.21 -1.65,-0.41 -1.65,-1.03 0,-0.58 0.56,-0.93 1.46,-0.93 0.9,0 1.7,0.37 2.11,0.87 l 0.59,-0.93 c -0.6,-0.57 -1.49,-1.02 -2.71,-1.02 -1.74,0 -2.71,0.97 -2.71,2.11 0,1.54 1.41,1.86 2.62,2.14 0.91,0.21 1.73,0.44 1.73,1.15 0,0.6 -0.53,1.02 -1.53,1.02 -0.96,0 -1.9,-0.49 -2.39,-1.02 z m -7.14,-2.64 c 0,2.14 1.47,3.75 3.63,3.75 1.34,0 2.15,-0.56 2.67,-1.25 l -0.89,-0.81 c -0.43,0.59 -1,0.89 -1.72,0.89 -1.4,0 -2.3,-1.09 -2.3,-2.57 0,-1.48 0.9,-2.55 2.3,-2.55 0.72,0 1.3,0.28 1.72,0.88 l 0.89,-0.81 c -0.52,-0.69 -1.33,-1.25 -2.67,-1.25 -2.16,-0.01 -3.63,1.58 -3.63,3.72 m -1.67,-3.55 h -1.33 v 7.12 h 1.33 z m -0.68,-1.2 c 0.47,0 0.86,-0.37 0.86,-0.84 0,-0.47 -0.38,-0.85 -0.86,-0.85 -0.46,0 -0.85,0.38 -0.85,0.85 0,0.47 0.4,0.84 0.85,0.84 m -3.2,8.49 c 0.69,0 1.11,-0.19 1.39,-0.46 l -0.34,-1 c -0.13,0.15 -0.41,0.28 -0.72,0.28 -0.46,0 -0.69,-0.37 -0.69,-0.87 v -4.09 h 1.45 v -1.16 h -1.45 v -1.95 h -1.33 v 1.95 h -1.18 v 1.16 h 1.18 v 4.38 c 0,1.13 0.57,1.76 1.69,1.76 m -9.64,2.62 c 0.21,0.06 0.6,0.1 0.83,0.1 1.03,-0.02 1.81,-0.41 2.27,-1.53 l 3.51,-8.48 h -1.43 l -2.23,5.59 -2.23,-5.59 h -1.42 l 2.94,7.2 -0.41,0.94 c -0.22,0.53 -0.55,0.69 -1.03,0.69 -0.18,0 -0.43,-0.04 -0.59,-0.12 z m -1.76,-12.63 h -1.33 v 9.84 h 1.33 z m -4.78,8.28 c -0.4,0.53 -1.09,0.81 -1.83,0.81 -0.96,0 -1.64,-0.58 -1.64,-1.42 0,-0.84 0.68,-1.42 1.64,-1.42 0.74,0 1.43,0.28 1.83,0.81 z m 1.33,1.56 v -4.81 c 0,-1.82 -1.31,-2.49 -2.86,-2.49 -1.15,0 -2.12,0.38 -2.92,1.16 l 0.57,0.92 c 0.63,-0.64 1.33,-0.95 2.14,-0.95 1.02,0 1.74,0.53 1.74,1.42 v 1.18 c -0.55,-0.63 -1.37,-0.94 -2.33,-0.94 -1.19,0 -2.48,0.71 -2.48,2.33 0,1.57 1.3,2.36 2.48,2.36 0.96,0 1.77,-0.34 2.33,-0.96 v 0.78 z m -7.83,0 v -5 c 0,-1.5 -0.78,-2.3 -2.29,-2.3 -1.11,0 -2.05,0.6 -2.52,1.18 v -1 h -1.33 v 7.12 h 1.33 v -5.09 c 0.38,-0.53 1.14,-1.03 1.96,-1.03 0.92,0 1.52,0.38 1.52,1.56 v 4.56 z m -10.14,-3.35 h -3.97 l 1.98,-5.21 z m 2.85,3.35 -3.91,-9.84 h -1.84 l -3.91,9.84 h 1.62 l 0.8,-2.04 h 4.82 l 0.8,2.04 z"
     id="path10" /><path
     class="st2"
     d="m 387.83,378.26 h -4.5 v 30.02 h 4.5 z m -37.94,15.03 c 0,9.36 6.98,15.57 15.57,15.57 5.08,0 9.23,-2.11 12.1,-5.31 v -11.03 h -14.13 v 3.96 h 9.63 v 5.4 c -1.44,1.35 -4.27,2.97 -7.6,2.97 -6.26,0 -10.93,-4.86 -10.93,-11.57 0,-6.75 4.68,-11.52 10.93,-11.52 3.51,0 6.52,1.75 8.23,4.05 l 3.65,-2.11 c -2.52,-3.38 -6.26,-5.94 -11.88,-5.94 -8.59,0.01 -15.57,6.17 -15.57,15.53 m -9.4,4.77 h -12.1 l 6.03,-15.88 z m 8.68,10.22 -11.92,-30.02 h -5.62 l -11.92,30.02 h 4.95 l 2.43,-6.21 h 14.71 l 2.43,6.21 z m -38.65,-10.22 h -12.11 l 6.03,-15.88 z m 8.69,10.22 -11.92,-30.02 h -5.62 l -11.93,30.02 h 4.95 l 2.43,-6.21 h 14.71 l 2.43,6.21 z"
     id="path11" /></g>
</svg>
